<svg width="256" height="259" viewBox="0 0 256 259" fill="none" xmlns="http://www.w3.org/2000/svg">
<path d="M254.8 223.5L0.5 223.6L57.6001 258.5L254.8 223.5Z" fill="#EBF6FF"/>
<path d="M0.5 223.6L254.8 223.5" stroke="#0033AA" stroke-miterlimit="10" stroke-linecap="round" stroke-linejoin="round"/>
<path d="M184.9 23.7998H70.2998V209.1H184.9V23.7998Z" stroke="#0033AA" stroke-miterlimit="10" stroke-linecap="round" stroke-linejoin="round"/>
<path d="M184.9 12.5996V23.7998H70.2998V12.5996C70.2998 6.29961 75.3 1.09961 81.5 1.09961H173.6C179.9 1.09961 184.9 6.19961 184.9 12.5996Z" fill="#C4E4FF" stroke="#0033AA" stroke-miterlimit="10" stroke-linejoin="round"/>
<path d="M184.5 24.2998H70.7998V45.4995H184.5V24.2998Z" fill="#204DB5" stroke="#0033AA" stroke-miterlimit="10" stroke-linejoin="round"/>
<path d="M112 12.3994H143.3" stroke="#0033AA" stroke-miterlimit="10" stroke-linecap="round" stroke-linejoin="round"/>
<path d="M70.2998 220.3C70.2998 226.6 75.3 231.8 81.5 231.8H173.6C179.8 231.8 184.8 226.7 184.8 220.3V209.1H70.2002V220.3H70.2998Z" fill="#C4E4FF" stroke="#0033AA" stroke-miterlimit="10" stroke-linejoin="round"/>
<path d="M80.3994 38.8994L76.0996 34.8994L80.3994 30.8994" stroke="white" stroke-miterlimit="10" stroke-linecap="round" stroke-linejoin="round"/>
<path d="M98.4702 34.8553L99.9839 31.7377H101.249L99.044 35.8946V38.3164H97.8964V35.8946L95.6869 31.7377H96.9566L98.4702 34.8553ZM101.353 35.8268C101.353 35.3478 101.448 34.9171 101.638 34.5345C101.827 34.149 102.094 33.8538 102.437 33.6489C102.781 33.4411 103.175 33.3372 103.621 33.3372C104.281 33.3372 104.815 33.5495 105.225 33.9743C105.638 34.399 105.861 34.9623 105.894 35.6641L105.898 35.9217C105.898 36.4036 105.805 36.8344 105.618 37.2139C105.435 37.5935 105.169 37.8872 104.823 38.095C104.48 38.3029 104.082 38.4068 103.63 38.4068C102.94 38.4068 102.388 38.1778 101.972 37.72C101.559 37.2591 101.353 36.6461 101.353 35.881V35.8268ZM102.451 35.9217C102.451 36.4247 102.555 36.8193 102.763 37.1055C102.97 37.3886 103.26 37.5302 103.63 37.5302C104.001 37.5302 104.288 37.3856 104.493 37.0964C104.701 36.8073 104.805 36.3841 104.805 35.8268C104.805 35.3328 104.698 34.9412 104.484 34.652C104.273 34.3628 103.986 34.2183 103.621 34.2183C103.263 34.2183 102.978 34.3613 102.767 34.6475C102.556 34.9306 102.451 35.3554 102.451 35.9217ZM109.789 37.8375C109.466 38.217 109.009 38.4068 108.415 38.4068C107.885 38.4068 107.483 38.2516 107.209 37.9414C106.938 37.6311 106.802 37.1823 106.802 36.5949V33.4275H107.9V36.5814C107.9 37.2019 108.158 37.5121 108.673 37.5121C109.206 37.5121 109.566 37.3209 109.753 36.9383V33.4275H110.851V38.3164H109.816L109.789 37.8375ZM114.528 34.4306C114.384 34.4065 114.235 34.3945 114.081 34.3945C113.578 34.3945 113.239 34.5873 113.065 34.9728V38.3164H111.967V33.4275H113.015L113.042 33.9743C113.307 33.5495 113.674 33.3372 114.144 33.3372C114.301 33.3372 114.431 33.3583 114.533 33.4004L114.528 34.4306ZM117.633 38.3164V31.7377H119.575C120.157 31.7377 120.672 31.8672 121.121 32.1263C121.573 32.3853 121.922 32.7528 122.169 33.2287C122.416 33.7047 122.54 34.2499 122.54 34.8644V35.1942C122.54 35.8178 122.415 36.366 122.164 36.8389C121.917 37.3118 121.564 37.6763 121.103 37.9323C120.645 38.1884 120.119 38.3164 119.526 38.3164H117.633ZM118.776 32.6594V37.4037H119.521C120.121 37.4037 120.58 37.2169 120.899 36.8434C121.222 36.4669 121.386 35.9277 121.392 35.2258V34.8599C121.392 34.146 121.237 33.6007 120.926 33.2242C120.616 32.8477 120.166 32.6594 119.575 32.6594H118.776ZM123.366 35.8268C123.366 35.3478 123.461 34.9171 123.651 34.5345C123.841 34.149 124.107 33.8538 124.451 33.6489C124.794 33.4411 125.189 33.3372 125.635 33.3372C126.294 33.3372 126.829 33.5495 127.239 33.9743C127.651 34.399 127.874 34.9623 127.907 35.6641L127.912 35.9217C127.912 36.4036 127.818 36.8344 127.632 37.2139C127.448 37.5935 127.183 37.8872 126.836 38.095C126.493 38.3029 126.095 38.4068 125.644 38.4068C124.954 38.4068 124.401 38.1778 123.985 37.72C123.573 37.2591 123.366 36.6461 123.366 35.881V35.8268ZM124.464 35.9217C124.464 36.4247 124.568 36.8193 124.776 37.1055C124.984 37.3886 125.273 37.5302 125.644 37.5302C126.014 37.5302 126.302 37.3856 126.507 37.0964C126.714 36.8073 126.818 36.3841 126.818 35.8268C126.818 35.3328 126.711 34.9412 126.498 34.652C126.287 34.3628 125.999 34.2183 125.635 34.2183C125.276 34.2183 124.991 34.3613 124.781 34.6475C124.57 34.9306 124.464 35.3554 124.464 35.9217ZM130.849 37.5302C131.123 37.5302 131.35 37.4504 131.531 37.2907C131.712 37.1311 131.808 36.9338 131.82 36.6988H132.855C132.843 37.0031 132.748 37.2877 132.57 37.5528C132.393 37.8149 132.152 38.0227 131.847 38.1763C131.543 38.33 131.215 38.4068 130.862 38.4068C130.179 38.4068 129.636 38.1854 129.236 37.7426C128.835 37.2998 128.635 36.6883 128.635 35.9081V35.7952C128.635 35.0511 128.834 34.4562 129.231 34.0104C129.629 33.5616 130.171 33.3372 130.858 33.3372C131.439 33.3372 131.912 33.5074 132.277 33.8477C132.644 34.1851 132.837 34.6294 132.855 35.1807H131.82C131.808 34.9005 131.712 34.6701 131.531 34.4894C131.353 34.3086 131.126 34.2183 130.849 34.2183C130.493 34.2183 130.219 34.3478 130.026 34.6068C129.834 34.8629 129.736 35.253 129.733 35.7771V35.9533C129.733 36.4835 129.828 36.8796 130.017 37.1416C130.21 37.4007 130.487 37.5302 130.849 37.5302ZM136.646 37.8375C136.324 38.217 135.866 38.4068 135.272 38.4068C134.742 38.4068 134.34 38.2516 134.066 37.9414C133.795 37.6311 133.659 37.1823 133.659 36.5949V33.4275H134.757V36.5814C134.757 37.2019 135.015 37.5121 135.53 37.5121C136.063 37.5121 136.423 37.3209 136.61 36.9383V33.4275H137.708V38.3164H136.673L136.646 37.8375ZM139.858 33.4275L139.89 33.9381C140.233 33.5375 140.703 33.3372 141.3 33.3372C141.953 33.3372 142.401 33.5872 142.642 34.0872C142.997 33.5872 143.497 33.3372 144.142 33.3372C144.681 33.3372 145.082 33.4863 145.344 33.7845C145.609 34.0827 145.744 34.5225 145.75 35.1039V38.3164H144.652V35.1355C144.652 34.8252 144.585 34.5978 144.449 34.4532C144.313 34.3086 144.089 34.2363 143.776 34.2363C143.526 34.2363 143.321 34.3041 143.161 34.4397C143.005 34.5722 142.895 34.7469 142.831 34.9638L142.836 38.3164H141.738V35.0993C141.723 34.524 141.429 34.2363 140.857 34.2363C140.417 34.2363 140.105 34.4156 139.922 34.774V38.3164H138.824V33.4275H139.858ZM149.031 38.4068C148.335 38.4068 147.77 38.1884 147.336 37.7516C146.906 37.3118 146.69 36.7274 146.69 35.9985V35.8629C146.69 35.375 146.784 34.9397 146.97 34.5571C147.16 34.1716 147.425 33.8718 147.766 33.658C148.106 33.4441 148.485 33.3372 148.904 33.3372C149.57 33.3372 150.083 33.5495 150.445 33.9743C150.809 34.399 150.992 34.9999 150.992 35.7771V36.2199H147.797C147.83 36.6235 147.964 36.9428 148.199 37.1778C148.437 37.4127 148.735 37.5302 149.094 37.5302C149.597 37.5302 150.007 37.3269 150.323 36.9202L150.915 37.485C150.719 37.7772 150.457 38.0046 150.129 38.1673C149.803 38.3269 149.437 38.4068 149.031 38.4068ZM148.9 34.2183C148.598 34.2183 148.354 34.3237 148.168 34.5345C147.984 34.7454 147.866 35.0391 147.815 35.4156H149.907V35.3343C149.883 34.9668 149.785 34.6897 149.614 34.5029C149.442 34.3131 149.204 34.2183 148.9 34.2183ZM152.867 33.4275L152.898 33.9923C153.26 33.5556 153.734 33.3372 154.322 33.3372C155.34 33.3372 155.858 33.92 155.876 35.0858V38.3164H154.778V35.149C154.778 34.8388 154.71 34.6098 154.575 34.4622C154.442 34.3116 154.224 34.2363 153.92 34.2363C153.477 34.2363 153.147 34.4366 152.93 34.8373V38.3164H151.832V33.4275H152.867ZM158.375 32.2392V33.4275H159.238V34.2408H158.375V36.9699C158.375 37.1567 158.411 37.2922 158.483 37.3766C158.558 37.4579 158.691 37.4986 158.881 37.4986C159.007 37.4986 159.135 37.4835 159.265 37.4534V38.3029C159.015 38.3721 158.774 38.4068 158.542 38.4068C157.698 38.4068 157.277 37.9414 157.277 37.0106V34.2408H156.472V33.4275H157.277V32.2392H158.375ZM162.821 36.988C162.821 36.7922 162.739 36.6431 162.577 36.5407C162.417 36.4383 162.15 36.3479 161.777 36.2696C161.403 36.1913 161.092 36.0919 160.842 35.9714C160.293 35.7063 160.019 35.3222 160.019 34.8192C160.019 34.3975 160.197 34.0451 160.552 33.7619C160.908 33.4787 161.36 33.3372 161.908 33.3372C162.492 33.3372 162.964 33.4818 163.322 33.7709C163.684 34.0601 163.864 34.4351 163.864 34.896H162.766C162.766 34.6852 162.688 34.5104 162.532 34.3719C162.375 34.2303 162.167 34.1595 161.908 34.1595C161.667 34.1595 161.47 34.2152 161.316 34.3267C161.165 34.4381 161.09 34.5873 161.09 34.774C161.09 34.9427 161.161 35.0737 161.303 35.1671C161.444 35.2605 161.73 35.3554 162.161 35.4518C162.592 35.5451 162.929 35.6581 163.173 35.7906C163.42 35.9202 163.602 36.0768 163.72 36.2606C163.84 36.4443 163.901 36.6672 163.901 36.9293C163.901 37.3691 163.718 37.726 163.354 38.0001C162.989 38.2712 162.512 38.4068 161.922 38.4068C161.521 38.4068 161.164 38.3345 160.851 38.1899C160.537 38.0453 160.293 37.8465 160.119 37.5935C159.944 37.3404 159.857 37.0678 159.857 36.7756H160.923C160.938 37.0347 161.036 37.235 161.217 37.3766C161.397 37.5152 161.637 37.5844 161.935 37.5844C162.224 37.5844 162.444 37.5302 162.595 37.4218C162.745 37.3103 162.821 37.1657 162.821 36.988Z" fill="white"/>
<path d="M174.7 62.7993V189.299C174.7 190.999 173.3 192.399 171.6 192.399H85.6997C83.9997 192.399 82.5996 190.999 82.5996 189.299V62.7993C82.5996 61.0993 83.9997 59.6992 85.6997 59.6992H171.6C173.3 59.6992 174.7 61.0993 174.7 62.7993Z" fill="white" stroke="#0033AA" stroke-miterlimit="10" stroke-linecap="round" stroke-linejoin="round"/>
<path d="M174.7 62.7993V79.999H82.5996V62.7993C82.5996 61.0993 83.9997 59.6992 85.6997 59.6992H171.6C173.3 59.6992 174.7 61.0993 174.7 62.7993Z" fill="#76BFFF" stroke="#0033AA" stroke-miterlimit="10" stroke-linejoin="round"/>
<path d="M97.8109 73.0879V66.1383H100.245C101.088 66.1383 101.728 66.3005 102.164 66.6251C102.6 66.9465 102.818 67.419 102.818 68.0427C102.818 68.3832 102.73 68.6839 102.555 68.9448C102.38 69.2026 102.137 69.3919 101.825 69.5128C102.181 69.6019 102.462 69.7817 102.665 70.0522C102.872 70.3227 102.975 70.6536 102.975 71.045C102.975 71.7132 102.762 72.2192 102.336 72.5629C101.909 72.9065 101.302 73.0815 100.513 73.0879H97.8109ZM99.2429 70.0617V71.9376H100.47C100.807 71.9376 101.069 71.858 101.257 71.6989C101.448 71.5366 101.543 71.3139 101.543 71.0307C101.543 70.3943 101.214 70.0713 100.555 70.0617H99.2429ZM99.2429 69.0499H100.302C101.025 69.0371 101.386 68.7491 101.386 68.1859C101.386 67.8709 101.294 67.645 101.109 67.5081C100.928 67.3681 100.64 67.2981 100.245 67.2981H99.2429V69.0499ZM107.978 71.656H105.467L104.99 73.0879H103.467L106.054 66.1383H107.381L109.982 73.0879H108.46L107.978 71.656ZM105.854 70.4961H107.591L106.718 67.8948L105.854 70.4961ZM116.283 73.0879H114.851L112.063 68.5153V73.0879H110.631V66.1383H112.063L114.856 70.7204V66.1383H116.283V73.0879ZM119.71 70.3004L118.965 71.1023V73.0879H117.533V66.1383H118.965V69.2885L119.595 68.4246L121.366 66.1383H123.127L120.66 69.2265L123.199 73.0879H121.495L119.71 70.3004ZM127.605 71.9376H130.645V73.0879H126.173V66.1383H127.605V71.9376ZM135.652 70.0761H132.903V71.9376H136.129V73.0879H131.471V66.1383H136.12V67.2981H132.903V68.9544H135.652V70.0761ZM142.296 67.2981H140.167V73.0879H138.735V67.2981H136.635V66.1383H142.296V67.2981ZM148.425 67.2981H146.296V73.0879H144.864V67.2981H142.764V66.1383H148.425V67.2981ZM153.427 70.0761H150.678V71.9376H153.904V73.0879H149.246V66.1383H153.895V67.2981H150.678V68.9544H153.427V70.0761ZM157.317 70.5438H156.176V73.0879H154.744V66.1383H157.327C158.148 66.1383 158.781 66.3212 159.226 66.6872C159.672 67.0531 159.895 67.5702 159.895 68.2384C159.895 68.7126 159.791 69.1087 159.584 69.4269C159.381 69.742 159.07 69.9933 158.654 70.1811L160.157 73.0211V73.0879H158.62L157.317 70.5438ZM156.176 69.384H157.331C157.691 69.384 157.969 69.2933 158.167 69.1119C158.364 68.9273 158.463 68.6744 158.463 68.353C158.463 68.0252 158.369 67.7675 158.181 67.5797C157.996 67.392 157.712 67.2981 157.327 67.2981H156.176V69.384Z" fill="white"/>
<path d="M166.5 121.6H94V124.7H166.5V121.6Z" fill="#C4E4FF"/>
<path d="M147.2 127.699H94V130.799H147.2V127.699Z" fill="#C4E4FF"/>
<path d="M166.5 140.5H94V143.6H166.5V140.5Z" fill="#C4E4FF"/>
<path d="M147.2 146.6H94V149.7H147.2V146.6Z" fill="#C4E4FF"/>
<path d="M166.5 159.5H94V162.6H166.5V159.5Z" fill="#C4E4FF"/>
<path d="M147.2 165.6H94V168.7H147.2V165.6Z" fill="#C4E4FF"/>
<path d="M128.701 110.1C134.389 110.1 139 105.489 139 99.8003C139 94.1118 134.389 89.5 128.701 89.5C123.012 89.5 118.4 94.1118 118.4 99.8003C118.4 105.489 123.012 110.1 128.701 110.1Z" fill="#4AA740" stroke="#0033AA" stroke-miterlimit="10"/>
<path d="M123.801 100.3L127.101 103.5L133.501 96" stroke="white" stroke-miterlimit="10" stroke-linecap="round" stroke-linejoin="round"/>
<path d="M225.799 101.1L203.899 225.7C203.599 227.4 201.999 228.5 200.299 228.2L115.7 213.399C114 213.099 112.9 211.5 113.2 209.8L135.1 85.1996C135.4 83.4996 137 82.3996 138.7 82.6996L223.299 97.4994C224.999 97.6994 226.099 99.3995 225.799 101.1Z" fill="white" stroke="#0033AA" stroke-miterlimit="10" stroke-linecap="round" stroke-linejoin="round"/>
<path d="M225.799 101.1L222.799 117.999L132.1 102.1L135.1 85.1996C135.4 83.4996 137 82.3996 138.7 82.6996L223.299 97.4994C224.999 97.6994 226.099 99.3995 225.799 101.1Z" fill="#76BFFF" stroke="#0033AA" stroke-miterlimit="10" stroke-linejoin="round"/>
<path d="M148.302 97.8562L149.504 91.0115L151.901 91.4323C152.732 91.5781 153.334 91.8486 153.707 92.2436C154.081 92.6355 154.214 93.1386 154.106 93.7529C154.047 94.0882 153.909 94.3693 153.691 94.596C153.474 94.8196 153.202 94.964 152.874 95.0291C153.209 95.1785 153.454 95.404 153.608 95.7056C153.765 96.0078 153.809 96.3516 153.742 96.7371C153.626 97.3952 153.329 97.8566 152.849 98.1214C152.37 98.3861 151.741 98.4534 150.963 98.3233L148.302 97.8562ZM150.236 95.1233L149.911 96.9708L151.119 97.1829C151.452 97.2412 151.724 97.2082 151.936 97.084C152.152 96.9572 152.285 96.7543 152.334 96.4754C152.444 95.8486 152.176 95.4735 151.528 95.3502L150.236 95.1233ZM150.411 94.1267L151.454 94.3099C152.168 94.4222 152.573 94.201 152.671 93.6463C152.725 93.3361 152.673 93.0976 152.515 92.9309C152.361 92.7617 152.089 92.6429 151.701 92.5747L150.713 92.4014L150.411 94.1267ZM158.563 98.2037L156.09 97.7696L155.372 99.0974L153.873 98.8341L157.622 92.4367L158.929 92.6661L160.29 99.9606L158.79 99.6973L158.563 98.2037ZM156.671 96.6941L158.383 96.9945L157.972 94.2814L156.671 96.6941ZM166.495 101.05L165.085 100.802L163.13 95.8168L162.339 100.32L160.929 100.073L162.131 93.2281L163.541 93.4757L165.499 98.4715L166.291 93.9585L167.697 94.2053L166.495 101.05ZM170.352 98.8971L169.48 99.5581L169.137 101.514L167.727 101.266L168.928 94.4215L170.339 94.6691L169.794 97.7717L170.564 97.0298L172.703 95.0842L174.438 95.3887L171.474 98.0036L173.307 102.246L171.629 101.951L170.352 98.8971ZM177.845 101.875L180.839 102.4L180.64 103.533L176.236 102.76L177.437 95.9152L178.847 96.1628L177.845 101.875ZM186.093 101.433L183.385 100.957L183.063 102.791L186.241 103.348L186.042 104.481L181.454 103.676L182.655 96.8313L187.234 97.6351L187.034 98.7774L183.865 98.2212L183.579 99.8524L186.286 100.328L186.093 101.433ZM193.117 99.8453L191.02 99.4772L190.019 105.18L188.609 104.932L189.61 99.2297L187.541 98.8665L187.742 97.7242L193.317 98.703L193.117 99.8453ZM199.153 100.905L197.056 100.537L196.055 106.239L194.645 105.992L195.646 100.289L193.577 99.9262L193.778 98.7838L199.353 99.7626L199.153 100.905ZM203.599 104.506L200.891 104.03L200.57 105.864L203.747 106.422L203.549 107.555L198.96 106.749L200.162 99.9046L204.741 100.708L204.54 101.851L201.372 101.294L201.085 102.926L203.793 103.401L203.599 104.506ZM207.35 105.639L206.226 105.442L205.786 107.948L204.376 107.7L205.577 100.855L208.121 101.302C208.929 101.444 209.521 101.733 209.897 102.171C210.272 102.608 210.402 103.156 210.287 103.814C210.205 104.281 210.034 104.653 209.776 104.931C209.521 105.206 209.172 105.4 208.729 105.513L209.718 108.57L209.707 108.636L208.193 108.37L207.35 105.639ZM206.427 104.3L207.564 104.499C207.918 104.561 208.208 104.52 208.434 104.376C208.66 104.228 208.801 103.996 208.857 103.679C208.913 103.357 208.865 103.087 208.713 102.869C208.564 102.652 208.299 102.511 207.92 102.444L206.787 102.245L206.427 104.3Z" fill="white"/>
<path d="M207.579 157.222L136.174 144.687L135.638 147.739L207.043 160.275L207.579 157.222Z" fill="#C4E4FF"/>
<path d="M187.535 159.853L135.138 150.654L134.602 153.708L186.999 162.906L187.535 159.853Z" fill="#C4E4FF"/>
<path d="M204.386 175.834L132.98 163.299L132.444 166.352L203.85 178.887L204.386 175.834Z" fill="#C4E4FF"/>
<path d="M184.225 178.548L131.828 169.35L131.292 172.402L183.689 181.601L184.225 178.548Z" fill="#C4E4FF"/>
<path d="M201.075 194.527L129.67 181.992L129.134 185.045L200.539 197.581L201.075 194.527Z" fill="#C4E4FF"/>
<path d="M181.031 197.159L128.634 187.961L128.098 191.014L180.495 200.213L181.031 197.159Z" fill="#C4E4FF"/>
<path d="M174.099 139.799C179.788 139.799 184.399 135.188 184.399 129.499C184.399 123.81 179.788 119.199 174.099 119.199C168.411 119.199 163.799 123.81 163.799 129.499C163.799 135.188 168.411 139.799 174.099 139.799Z" fill="#4AA740" stroke="#0033AA" stroke-miterlimit="10"/>
<path d="M169.199 129.2L171.799 133L179.499 126.6" stroke="white" stroke-miterlimit="10" stroke-linecap="round" stroke-linejoin="round"/>
<path d="M95 225.9V221.4H92.1001V185.5H98.2998V177.9H92L61 160L29.2002 177.9H23.2002V185.5H29.7998V221.4H27.5V225.9H22.7998V234.9H99.7998V225.9H95Z" fill="#EBF6FF" stroke="#0033AA" stroke-miterlimit="10" stroke-linejoin="round"/>
<path d="M28.0996 178.5H92.9995L60.9995 160L28.0996 178.5Z" fill="#FFB028" stroke="#0033AA" stroke-miterlimit="10" stroke-linecap="round" stroke-linejoin="round"/>
<path d="M61 173.6C59 173.6 57.2998 171.9 57.2998 169.9C57.2998 167.9 59 166.2 61 166.2C63 166.2 64.7002 167.9 64.7002 169.9C64.7002 171.9 63 173.6 61 173.6Z" fill="#FFCD77" stroke="#0033AA" stroke-miterlimit="10" stroke-linecap="round" stroke-linejoin="round"/>
<path d="M89.8999 224.4H78.3999V201C78.3999 198.6 76.5002 196.601 74.2002 196.601C71.9002 196.601 70 198.6 70 201V224.4H51.8999V201C51.8999 198.6 50.0002 196.601 47.7002 196.601C45.4002 196.601 43.5 198.6 43.5 201V224.4H32.7002V181.801H90V224.4H89.8999Z" fill="#C4E4FF" stroke="#0033AA" stroke-miterlimit="10" stroke-linejoin="round"/>
<path d="M33.5 226.201H32.5C31 226.201 29.7998 224.701 29.7998 222.601V182.9H36.2002V222.601C36.2002 224.701 35 226.201 33.5 226.201Z" fill="#EBF6FF" stroke="#0033AA" stroke-miterlimit="10" stroke-linejoin="round"/>
<path d="M61.3999 226.201H60.3999C58.8999 226.201 57.7002 224.701 57.7002 222.601V182.9H64.1001V222.601C64.1001 224.701 62.9999 226.201 61.3999 226.201Z" fill="#EBF6FF" stroke="#0033AA" stroke-miterlimit="10" stroke-linejoin="round"/>
<path d="M89.3999 226.201H88.3999C86.8999 226.201 85.7002 224.701 85.7002 222.601V182.9H92.1001V222.601C92.1001 224.701 90.8999 226.201 89.3999 226.201Z" fill="#EBF6FF" stroke="#0033AA" stroke-miterlimit="10" stroke-linejoin="round"/>
<path d="M95 229.601H27.5V221.4H95V229.601Z" fill="#EBF6FF" stroke="#0033AA" stroke-miterlimit="10" stroke-linejoin="round"/>
<path d="M99.7002 234.9H22.7002V225.9H99.7002V234.9Z" fill="#EBF6FF" stroke="#0033AA" stroke-miterlimit="10" stroke-linejoin="round"/>
<path d="M98.2998 185.5H23.2002V177.9H98.2998V185.5Z" fill="#EBF6FF" stroke="#0033AA" stroke-miterlimit="10" stroke-linejoin="round"/>
</svg>
