<svg width="256" height="259" viewBox="0 0 256 259" fill="none" xmlns="http://www.w3.org/2000/svg">
<path d="M255.2 223.5L1 223.6L58.1001 258.5L255.2 223.5Z" fill="#EBF6FF"/>
<path d="M1 223.6L255.2 223.5" stroke="#0033AA" stroke-miterlimit="10" stroke-linecap="round" stroke-linejoin="round"/>
<path d="M185.4 23.7998H70.7998V209.1H185.4V23.7998Z" stroke="#0033AA" stroke-miterlimit="10" stroke-linecap="round" stroke-linejoin="round"/>
<path d="M185.4 12.5996V23.7998H70.7998V12.5996C70.7998 6.29961 75.7998 1.09961 81.9998 1.09961H174.1C180.4 1.09961 185.4 6.19961 185.4 12.5996Z" fill="#C4E4FF" stroke="#0033AA" stroke-miterlimit="10" stroke-linejoin="round"/>
<path d="M185 24.2998H71.2998V45.4995H185V24.2998Z" fill="#204DB5" stroke="#0033AA" stroke-miterlimit="10" stroke-linejoin="round"/>
<path d="M112.4 12.3994H143.801" stroke="#0033AA" stroke-miterlimit="10" stroke-linecap="round" stroke-linejoin="round"/>
<path d="M70.8003 220.3C70.8003 226.6 75.8002 231.8 82.0002 231.8H174.1C180.3 231.8 185.3 226.7 185.3 220.3V209.1H70.7002V220.3H70.8003Z" fill="#C4E4FF" stroke="#0033AA" stroke-miterlimit="10" stroke-linejoin="round"/>
<path d="M80.8994 38.8994L76.5996 34.8994L80.8994 30.8994" stroke="white" stroke-miterlimit="10" stroke-linecap="round" stroke-linejoin="round"/>
<path d="M98.9624 34.8553L100.476 31.7377H101.741L99.5362 35.8946V38.3164H98.3886V35.8946L96.1791 31.7377H97.4487L98.9624 34.8553ZM101.845 35.8268C101.845 35.3478 101.94 34.9171 102.13 34.5345C102.32 34.149 102.586 33.8538 102.93 33.6489C103.273 33.4411 103.668 33.3372 104.113 33.3372C104.773 33.3372 105.308 33.5495 105.717 33.9743C106.13 34.399 106.353 34.9623 106.386 35.6641L106.391 35.9217C106.391 36.4036 106.297 36.8344 106.11 37.2139C105.927 37.5935 105.662 37.8872 105.315 38.095C104.972 38.3029 104.574 38.4068 104.122 38.4068C103.433 38.4068 102.88 38.1778 102.464 37.72C102.051 37.2591 101.845 36.6461 101.845 35.881V35.8268ZM102.943 35.9217C102.943 36.4247 103.047 36.8193 103.255 37.1055C103.463 37.3886 103.752 37.5302 104.122 37.5302C104.493 37.5302 104.781 37.3856 104.985 37.0964C105.193 36.8073 105.297 36.3841 105.297 35.8268C105.297 35.3328 105.19 34.9412 104.976 34.652C104.765 34.3628 104.478 34.2183 104.113 34.2183C103.755 34.2183 103.47 34.3613 103.259 34.6475C103.049 34.9306 102.943 35.3554 102.943 35.9217ZM110.281 37.8375C109.959 38.217 109.501 38.4068 108.907 38.4068C108.377 38.4068 107.975 38.2516 107.701 37.9414C107.43 37.6311 107.294 37.1823 107.294 36.5949V33.4275H108.392V36.5814C108.392 37.2019 108.65 37.5121 109.165 37.5121C109.698 37.5121 110.058 37.3209 110.245 36.9383V33.4275H111.343V38.3164H110.308L110.281 37.8375ZM115.021 34.4306C114.876 34.4065 114.727 34.3945 114.573 34.3945C114.07 34.3945 113.731 34.5873 113.557 34.9728V38.3164H112.459V33.4275H113.507L113.534 33.9743C113.799 33.5495 114.167 33.3372 114.637 33.3372C114.793 33.3372 114.923 33.3583 115.025 33.4004L115.021 34.4306ZM118.125 38.3164V31.7377H120.068C120.649 31.7377 121.164 31.8672 121.613 32.1263C122.065 32.3853 122.414 32.7528 122.661 33.2287C122.908 33.7047 123.032 34.2499 123.032 34.8644V35.1942C123.032 35.8178 122.907 36.366 122.657 36.8389C122.41 37.3118 122.056 37.6763 121.595 37.9323C121.137 38.1884 120.611 38.3164 120.018 38.3164H118.125ZM119.268 32.6594V37.4037H120.013C120.613 37.4037 121.072 37.2169 121.392 36.8434C121.714 36.4669 121.878 35.9277 121.884 35.2258V34.8599C121.884 34.146 121.729 33.6007 121.419 33.2242C121.108 32.8477 120.658 32.6594 120.068 32.6594H119.268ZM123.859 35.8268C123.859 35.3478 123.953 34.9171 124.143 34.5345C124.333 34.149 124.6 33.8538 124.943 33.6489C125.286 33.4411 125.681 33.3372 126.127 33.3372C126.786 33.3372 127.321 33.5495 127.731 33.9743C128.143 34.399 128.366 34.9623 128.4 35.6641L128.404 35.9217C128.404 36.4036 128.311 36.8344 128.124 37.2139C127.94 37.5935 127.675 37.8872 127.329 38.095C126.985 38.3029 126.588 38.4068 126.136 38.4068C125.446 38.4068 124.893 38.1778 124.478 37.72C124.065 37.2591 123.859 36.6461 123.859 35.881V35.8268ZM124.957 35.9217C124.957 36.4247 125.06 36.8193 125.268 37.1055C125.476 37.3886 125.765 37.5302 126.136 37.5302C126.506 37.5302 126.794 37.3856 126.999 37.0964C127.207 36.8073 127.311 36.3841 127.311 35.8268C127.311 35.3328 127.204 34.9412 126.99 34.652C126.779 34.3628 126.491 34.2183 126.127 34.2183C125.768 34.2183 125.484 34.3613 125.273 34.6475C125.062 34.9306 124.957 35.3554 124.957 35.9217ZM131.341 37.5302C131.615 37.5302 131.843 37.4504 132.023 37.2907C132.204 37.1311 132.3 36.9338 132.312 36.6988H133.347C133.335 37.0031 133.24 37.2877 133.062 37.5528C132.885 37.8149 132.644 38.0227 132.34 38.1763C132.035 38.33 131.707 38.4068 131.355 38.4068C130.671 38.4068 130.129 38.1854 129.728 37.7426C129.327 37.2998 129.127 36.6883 129.127 35.9081V35.7952C129.127 35.0511 129.326 34.4562 129.723 34.0104C130.121 33.5616 130.663 33.3372 131.35 33.3372C131.931 33.3372 132.404 33.5074 132.769 33.8477C133.136 34.1851 133.329 34.6294 133.347 35.1807H132.312C132.3 34.9005 132.204 34.6701 132.023 34.4894C131.846 34.3086 131.618 34.2183 131.341 34.2183C130.986 34.2183 130.711 34.3478 130.519 34.6068C130.326 34.8629 130.228 35.253 130.225 35.7771V35.9533C130.225 36.4835 130.32 36.8796 130.51 37.1416C130.702 37.4007 130.979 37.5302 131.341 37.5302ZM137.138 37.8375C136.816 38.217 136.358 38.4068 135.764 38.4068C135.234 38.4068 134.832 38.2516 134.558 37.9414C134.287 37.6311 134.151 37.1823 134.151 36.5949V33.4275H135.249V36.5814C135.249 37.2019 135.507 37.5121 136.022 37.5121C136.555 37.5121 136.915 37.3209 137.102 36.9383V33.4275H138.2V38.3164H137.165L137.138 37.8375ZM140.351 33.4275L140.382 33.9381C140.726 33.5375 141.196 33.3372 141.792 33.3372C142.446 33.3372 142.893 33.5872 143.134 34.0872C143.489 33.5872 143.989 33.3372 144.634 33.3372C145.173 33.3372 145.574 33.4863 145.836 33.7845C146.101 34.0827 146.236 34.5225 146.243 35.1039V38.3164H145.145V35.1355C145.145 34.8252 145.077 34.5978 144.941 34.4532C144.806 34.3086 144.581 34.2363 144.268 34.2363C144.018 34.2363 143.813 34.3041 143.653 34.4397C143.497 34.5722 143.387 34.7469 143.324 34.9638L143.328 38.3164H142.23V35.0993C142.215 34.524 141.921 34.2363 141.349 34.2363C140.909 34.2363 140.598 34.4156 140.414 34.774V38.3164H139.316V33.4275H140.351ZM149.523 38.4068C148.827 38.4068 148.262 38.1884 147.828 37.7516C147.398 37.3118 147.182 36.7274 147.182 35.9985V35.8629C147.182 35.375 147.276 34.9397 147.462 34.5571C147.652 34.1716 147.917 33.8718 148.258 33.658C148.598 33.4441 148.978 33.3372 149.396 33.3372C150.062 33.3372 150.576 33.5495 150.937 33.9743C151.302 34.399 151.484 34.9999 151.484 35.7771V36.2199H148.289C148.322 36.6235 148.457 36.9428 148.691 37.1778C148.929 37.4127 149.228 37.5302 149.586 37.5302C150.089 37.5302 150.499 37.3269 150.815 36.9202L151.407 37.485C151.211 37.7772 150.949 38.0046 150.621 38.1673C150.295 38.3269 149.929 38.4068 149.523 38.4068ZM149.392 34.2183C149.091 34.2183 148.847 34.3237 148.66 34.5345C148.476 34.7454 148.359 35.0391 148.307 35.4156H150.399V35.3343C150.375 34.9668 150.277 34.6897 150.106 34.5029C149.934 34.3131 149.696 34.2183 149.392 34.2183ZM153.359 33.4275L153.391 33.9923C153.752 33.5556 154.226 33.3372 154.814 33.3372C155.832 33.3372 156.35 33.92 156.368 35.0858V38.3164H155.27V35.149C155.27 34.8388 155.202 34.6098 155.067 34.4622C154.934 34.3116 154.716 34.2363 154.412 34.2363C153.969 34.2363 153.639 34.4366 153.422 34.8373V38.3164H152.324V33.4275H153.359ZM158.867 32.2392V33.4275H159.73V34.2408H158.867V36.9699C158.867 37.1567 158.903 37.2922 158.975 37.3766C159.051 37.4579 159.183 37.4986 159.373 37.4986C159.499 37.4986 159.627 37.4835 159.757 37.4534V38.3029C159.507 38.3721 159.266 38.4068 159.034 38.4068C158.191 38.4068 157.769 37.9414 157.769 37.0106V34.2408H156.965V33.4275H157.769V32.2392H158.867ZM163.313 36.988C163.313 36.7922 163.232 36.6431 163.069 36.5407C162.909 36.4383 162.643 36.3479 162.269 36.2696C161.896 36.1913 161.584 36.0919 161.334 35.9714C160.786 35.7063 160.511 35.3222 160.511 34.8192C160.511 34.3975 160.689 34.0451 161.045 33.7619C161.4 33.4787 161.852 33.3372 162.4 33.3372C162.985 33.3372 163.456 33.4818 163.814 33.7709C164.176 34.0601 164.357 34.4351 164.357 34.896H163.259C163.259 34.6852 163.18 34.5104 163.024 34.3719C162.867 34.2303 162.659 34.1595 162.4 34.1595C162.159 34.1595 161.962 34.2152 161.808 34.3267C161.658 34.4381 161.582 34.5873 161.582 34.774C161.582 34.9427 161.653 35.0737 161.795 35.1671C161.936 35.2605 162.222 35.3554 162.653 35.4518C163.084 35.5451 163.421 35.6581 163.665 35.7906C163.912 35.9202 164.095 36.0768 164.212 36.2606C164.333 36.4443 164.393 36.6672 164.393 36.9293C164.393 37.3691 164.211 37.726 163.846 38.0001C163.482 38.2712 163.004 38.4068 162.414 38.4068C162.013 38.4068 161.656 38.3345 161.343 38.1899C161.03 38.0453 160.786 37.8465 160.611 37.5935C160.436 37.3404 160.349 37.0678 160.349 36.7756H161.415C161.43 37.0347 161.528 37.235 161.709 37.3766C161.89 37.5152 162.129 37.5844 162.427 37.5844C162.716 37.5844 162.936 37.5302 163.087 37.4218C163.238 37.3103 163.313 37.1657 163.313 36.988Z" fill="white"/>
<path d="M175.199 62.7993V189.299C175.199 190.999 173.8 192.399 172.1 192.399H86.1995C84.4995 192.399 83.0996 190.999 83.0996 189.299V62.7993C83.0996 61.0993 84.4995 59.6992 86.1995 59.6992H172.1C173.8 59.6992 175.199 61.0993 175.199 62.7993Z" fill="white" stroke="#0033AA" stroke-miterlimit="10" stroke-linecap="round" stroke-linejoin="round"/>
<path d="M175.199 62.7993V79.999H83.0996V62.7993C83.0996 61.0993 84.4995 59.6992 86.1995 59.6992H172.1C173.8 59.6992 175.199 61.0993 175.199 62.7993Z" fill="#76BFFF" stroke="#0033AA" stroke-miterlimit="10" stroke-linejoin="round"/>
<path d="M104.802 71.2636C104.802 70.9931 104.707 70.7863 104.516 70.6431C104.325 70.4967 103.981 70.344 103.485 70.1849C102.989 70.0226 102.596 69.8635 102.306 69.7076C101.517 69.2812 101.122 68.7068 101.122 67.9845C101.122 67.609 101.227 67.2749 101.437 66.9821C101.65 66.6862 101.954 66.4555 102.349 66.29C102.747 66.1246 103.192 66.0418 103.685 66.0418C104.182 66.0418 104.624 66.1325 105.012 66.3139C105.401 66.4921 105.701 66.7451 105.914 67.0728C106.131 67.4006 106.239 67.7729 106.239 68.1897H104.807C104.807 67.8715 104.707 67.6249 104.506 67.4499C104.306 67.2717 104.024 67.1826 103.662 67.1826C103.312 67.1826 103.039 67.2574 102.845 67.4069C102.651 67.5533 102.554 67.7474 102.554 67.9892C102.554 68.2152 102.667 68.4045 102.893 68.5572C103.122 68.71 103.458 68.8532 103.9 68.9868C104.715 69.2318 105.308 69.5357 105.681 69.8985C106.053 70.2612 106.239 70.7131 106.239 71.254C106.239 71.8555 106.011 72.328 105.556 72.6717C105.101 73.0121 104.489 73.1824 103.719 73.1824C103.184 73.1824 102.697 73.0853 102.258 72.8912C101.819 72.6939 101.483 72.425 101.251 72.0846C101.022 71.7441 100.907 71.3495 100.907 70.9008H102.344C102.344 71.6677 102.802 72.0512 103.719 72.0512C104.059 72.0512 104.325 71.9827 104.516 71.8459C104.707 71.7059 104.802 71.5118 104.802 71.2636ZM112.444 67.2971H110.315V73.0869H108.883V67.2971H106.783V66.1373H112.444V67.2971ZM116.616 71.655H114.105L113.628 73.0869H112.105L114.692 66.1373H116.019L118.62 73.0869H117.098L116.616 71.655ZM114.492 70.4951H116.229L115.356 67.8938L114.492 70.4951ZM123.928 67.2971H121.799V73.0869H120.367V67.2971H118.267V66.1373H123.928V67.2971ZM128.93 70.0751H126.181V71.9366H129.408V73.0869H124.749V66.1373H129.398V67.2971H126.181V68.9534H128.93V70.0751ZM132.119 66.1373L133.904 71.1777L135.679 66.1373H137.56V73.0869H136.123V71.1872L136.267 67.9081L134.391 73.0869H133.407L131.536 67.9129L131.68 71.1872V73.0869H130.248V66.1373H132.119ZM142.992 70.0751H140.243V71.9366H143.469V73.0869H138.811V66.1373H143.46V67.2971H140.243V68.9534H142.992V70.0751ZM149.961 73.0869H148.529L145.741 68.5143V73.0869H144.309V66.1373H145.741L148.533 70.7195V66.1373H149.961V73.0869ZM156.299 67.2971H154.17V73.0869H152.739V67.2971H150.638V66.1373H156.299V67.2971Z" fill="white"/>
<path d="M140.199 93.999H105.1V97.0991H140.199V93.999Z" fill="#C4E4FF"/>
<path d="M130.8 100.199H105.1V103.299H130.8V100.199Z" fill="#C4E4FF"/>
<path d="M140.199 111.6H94.5996V114.7H140.199V111.6Z" fill="#C4E4FF"/>
<path d="M128.1 117.699H94.5996V120.799H128.1V117.699Z" fill="#C4E4FF"/>
<path d="M140.199 129.199H94.5996V132.299H140.199V129.199Z" fill="#C4E4FF"/>
<path d="M128.1 135.299H94.5996V138.398H128.1V135.299Z" fill="#C4E4FF"/>
<path d="M160.799 111.6H148.199V114.7H160.799V111.6Z" fill="#C4E4FF"/>
<path d="M157.499 117.699H148.199V120.799H157.499V117.699Z" fill="#C4E4FF"/>
<path d="M160.799 93.999H148.199V97.0991H160.799V93.999Z" fill="#C4E4FF"/>
<path d="M157.499 100.199H148.199V103.299H157.499V100.199Z" fill="#C4E4FF"/>
<path d="M160.799 129.199H148.199V132.299H160.799V129.199Z" fill="#C4E4FF"/>
<path d="M157.499 135.299H148.199V138.398H157.499V135.299Z" fill="#C4E4FF"/>
<path d="M97.9904 97.9006H96.2135V101.863H93.9831V91.0384H98.0053C99.284 91.0384 100.27 91.3234 100.964 91.8934C101.658 92.4634 102.005 93.2688 102.005 94.3097C102.005 95.0482 101.844 95.6652 101.522 96.1609C101.205 96.6516 100.721 97.0431 100.072 97.3356L102.414 101.759V101.863H100.02L97.9904 97.9006ZM96.2135 96.094H98.0127C98.5728 96.094 99.0065 95.9527 99.3138 95.6702C99.6211 95.3827 99.7747 94.9887 99.7747 94.4881C99.7747 93.9776 99.6285 93.5761 99.3361 93.2837C99.0486 92.9912 98.605 92.845 98.0053 92.845H96.2135V96.094Z" fill="#0033AA"/>
<path d="M123.399 162.898H94.5996V181.999H123.399V162.898Z" fill="white" stroke="#0033AA" stroke-miterlimit="10" stroke-linecap="round" stroke-linejoin="round"/>
<path d="M118.399 168.398H98.1992V171.299H118.399V168.398Z" fill="#0033AA"/>
<path d="M112.999 173.599H98.1992V176.499H112.999V173.599Z" fill="#0033AA"/>
<path d="M226.1 100.199L205.4 224.999C205.1 226.699 203.5 227.899 201.8 227.599L117.1 213.499C115.4 213.199 114.2 211.599 114.5 209.899L135.2 85.0993C135.5 83.3993 137.1 82.1992 138.8 82.4992L223.5 96.5993C225.2 96.8993 226.3 98.4994 226.1 100.199Z" fill="white" stroke="#0033AA" stroke-miterlimit="10" stroke-linecap="round" stroke-linejoin="round"/>
<path d="M226.101 100.199L223.301 117.099L132.4 101.999L135.2 85.0993C135.5 83.3993 137.101 82.1992 138.801 82.4992L223.5 96.5993C225.2 96.8993 226.301 98.4994 226.101 100.199Z" fill="#76BFFF" stroke="#0033AA" stroke-miterlimit="10" stroke-linejoin="round"/>
<path d="M155.207 96.9933C155.251 96.7264 155.191 96.5067 155.026 96.3342C154.862 96.1585 154.548 95.9514 154.084 95.7131C153.621 95.4716 153.26 95.2501 153 95.0488C152.291 94.4988 151.996 93.8675 152.114 93.1549C152.176 92.7845 152.334 92.4721 152.59 92.2177C152.848 91.9608 153.186 91.783 153.602 91.6845C154.022 91.5865 154.475 91.5779 154.962 91.6588C155.451 91.7402 155.873 91.9022 156.226 92.1448C156.58 92.3843 156.835 92.6832 156.991 93.0414C157.151 93.4003 157.197 93.7853 157.128 94.1965L155.716 93.9617C155.768 93.6478 155.71 93.388 155.54 93.1825C155.372 92.9738 155.109 92.8398 154.751 92.7803C154.406 92.7229 154.125 92.752 153.909 92.8677C153.693 92.9803 153.566 93.1559 153.526 93.3944C153.489 93.6173 153.57 93.8226 153.767 94.0103C153.968 94.1986 154.276 94.3949 154.69 94.5993C155.454 94.9746 155.989 95.3717 156.297 95.7906C156.605 96.2095 156.715 96.6858 156.626 97.2195C156.527 97.8128 156.225 98.2416 155.72 98.506C155.215 98.7673 154.583 98.8347 153.823 98.7085C153.296 98.6208 152.832 98.4452 152.43 98.1817C152.029 97.915 151.742 97.5947 151.569 97.2208C151.399 96.8473 151.351 96.4393 151.424 95.9966L152.842 96.2323C152.716 96.9888 153.105 97.4422 154.009 97.5925C154.345 97.6483 154.618 97.6244 154.829 97.5208C155.04 97.4139 155.166 97.2381 155.207 96.9933ZM163.396 94.3336L161.296 93.9845L160.346 99.6961L158.934 99.4613L159.883 93.7497L157.812 93.4052L158.002 92.261L163.586 93.1894L163.396 94.3336ZM166.797 99.3168L164.32 98.905L163.614 100.239L162.112 99.9896L165.804 93.5581L167.113 93.7757L168.54 101.058L167.037 100.808L166.797 99.3168ZM164.892 97.8242L166.606 98.1092L166.17 95.3997L164.892 97.8242ZM174.725 96.217L172.625 95.8679L171.675 101.579L170.263 101.345L171.212 95.633L169.141 95.2886L169.331 94.1444L174.915 95.0728L174.725 96.217ZM179.204 99.7778L176.492 99.3269L176.187 101.163L179.37 101.692L179.181 102.827L174.585 102.063L175.725 95.2074L180.311 95.9699L180.121 97.1141L176.948 96.5865L176.676 98.2204L179.388 98.6713L179.204 99.7778ZM182.995 96.4161L183.93 101.681L186.508 97L188.363 97.3084L187.223 104.164L185.806 103.929L186.118 102.055L186.797 98.8432L184.097 103.644L183.127 103.483L182.13 98.0722L181.734 101.326L181.422 103.2L180.01 102.965L181.15 96.1092L182.995 96.4161ZM193.076 102.084L190.364 101.633L190.058 103.469L193.241 103.999L193.053 105.133L188.457 104.369L189.597 97.5135L194.183 98.276L193.993 99.4202L190.819 98.8926L190.548 100.526L193.26 100.977L193.076 102.084ZM199.457 106.198L198.044 105.963L196.044 100.995L195.294 105.506L193.882 105.271L195.021 98.4153L196.434 98.6501L198.437 103.628L199.188 99.1081L200.596 99.3421L199.457 106.198ZM206.659 101.526L204.559 101.177L203.61 106.888L202.197 106.654L203.147 100.942L201.075 100.597L201.265 99.4533L206.849 100.382L206.659 101.526Z" fill="white"/>
<path d="M186.28 125.598L151.654 119.842L151.146 122.9L185.772 128.656L186.28 125.598Z" fill="#C4E4FF"/>
<path d="M175.956 130.012L150.603 125.797L150.094 128.855L175.447 133.07L175.956 130.012Z" fill="#C4E4FF"/>
<path d="M183.305 142.949L138.32 135.471L137.812 138.529L182.796 146.007L183.305 142.949Z" fill="#C4E4FF"/>
<path d="M170.392 146.963L137.344 141.469L136.835 144.527L169.883 150.021L170.392 146.963Z" fill="#C4E4FF"/>
<path d="M180.41 160.248L135.426 152.77L134.917 155.828L179.902 163.306L180.41 160.248Z" fill="#C4E4FF"/>
<path d="M167.497 164.262L134.449 158.768L133.941 161.826L166.989 167.32L167.497 164.262Z" fill="#C4E4FF"/>
<path d="M203.745 146.25L191.315 144.184L190.807 147.242L203.237 149.308L203.745 146.25Z" fill="#C4E4FF"/>
<path d="M199.459 151.78L190.285 150.255L189.777 153.313L198.951 154.838L199.459 151.78Z" fill="#C4E4FF"/>
<path d="M206.64 128.951L194.21 126.885L193.702 129.943L206.132 132.009L206.64 128.951Z" fill="#C4E4FF"/>
<path d="M202.354 134.481L193.18 132.956L192.671 136.014L201.846 137.54L202.354 134.481Z" fill="#C4E4FF"/>
<path d="M200.833 163.646L188.403 161.58L187.895 164.638L200.325 166.704L200.833 163.646Z" fill="#C4E4FF"/>
<path d="M196.564 169.078L187.39 167.553L186.881 170.611L196.056 172.136L196.564 169.078Z" fill="#C4E4FF"/>
<path d="M144.119 122.152L142.366 121.861L141.716 125.77L139.516 125.404L141.291 114.725L145.259 115.385C146.52 115.595 147.447 116.038 148.038 116.714C148.629 117.39 148.839 118.241 148.668 119.268C148.547 119.997 148.287 120.579 147.888 121.015C147.495 121.447 146.954 121.754 146.265 121.936L147.85 126.684L147.833 126.787L145.471 126.394L144.119 122.152ZM142.662 120.078L144.437 120.374C144.99 120.465 145.441 120.397 145.79 120.169C146.141 119.936 146.357 119.572 146.439 119.078C146.523 118.575 146.444 118.155 146.204 117.818C145.968 117.483 145.554 117.266 144.963 117.167L143.195 116.873L142.662 120.078Z" fill="#0033AA"/>
<path d="M158.334 190.788L129.923 186.064L126.79 204.907L155.202 209.63L158.334 190.788Z" fill="white" stroke="#0033AA" stroke-miterlimit="10" stroke-linecap="round" stroke-linejoin="round"/>
<path d="M152.481 195.266L132.554 191.953L132.078 194.814L152.005 198.127L152.481 195.266Z" fill="#0033AA"/>
<path d="M146.305 199.623L131.705 197.196L131.229 200.057L145.83 202.484L146.305 199.623Z" fill="#0033AA"/>
<path d="M72.7 118.1C72.7 115.9 72.7001 113.5 72.6001 111.1C72.7001 109.4 72.9001 107.5 73.1001 105.1C74.2001 91.3998 71.4999 71.4999 53.8999 77.6999C36.0999 83.3999 46.1001 100.9 55.3001 111.1C56.9001 112.8 58.2001 114.3 59.3001 115.5C60.7001 117.5 62.1 119.4 63.5 121.1C64.6 123.6 64 125.8 62.5 130.5C59.5 139.7 66.3001 141.8 66.3001 141.8L83 136.1C83 136.1 87.2 130.2 79.2 124.8C75.1 122.1 73.3 120.7 72.7 118.1Z" fill="#FFCD77" stroke="#0033AA" stroke-miterlimit="10" stroke-linejoin="round"/>
<path d="M107.1 150.4L55.8999 167.8C54.8999 168.1 53.7999 167.6 53.3999 166.6V166.5C53.0999 165.5 53.6001 164.4 54.6001 164L105.8 146.6C106.8 146.3 107.9 146.8 108.3 147.8V147.9C108.6 148.9 108.1 150 107.1 150.4Z" fill="#0033AA" stroke="#0033AA" stroke-miterlimit="10" stroke-linejoin="round"/>
<path d="M110.3 145.499L101.7 129.7C100.8 128 99.2 127.099 98 127.499L49.3001 143.999C48.0001 144.399 47.4 146.099 47.7 147.999L50.5 165.8C50.6 166.4 51.1 166.8 51.5 166.7L80.3999 156.899L80.7 156.8L110.3 146.8C110.5 146.7 110.6 146.099 110.3 145.499Z" fill="#76BFFF" stroke="#0033AA" stroke-miterlimit="10" stroke-linejoin="round"/>
<path d="M83.6007 128.099L61.0006 135.8C60.0006 136.2 59.4005 137.3 59.7005 138.3C60.1005 139.3 61.2005 139.899 62.2005 139.599L84.8006 131.899C85.8006 131.499 86.4007 130.399 86.1007 129.399C85.8007 128.299 84.6007 127.799 83.6007 128.099Z" fill="#FFB028" stroke="#0033AA" stroke-miterlimit="10" stroke-linejoin="round"/>
</svg>
