<svg width="265" height="259" viewBox="0 0 265 259" fill="none" xmlns="http://www.w3.org/2000/svg">
<path d="M263.899 223L9.69922 223.5L66.7993 258.2L263.899 223Z" fill="#EBF6FF"/>
<path d="M9.69922 223.5L263.899 223" stroke="#0033AA" stroke-miterlimit="10" stroke-linecap="round" stroke-linejoin="round"/>
<path d="M181.776 23.3294L67.1758 23.4785L67.4169 208.779L182.017 208.63L181.776 23.3294Z" stroke="#0033AA" stroke-miterlimit="10" stroke-linecap="round" stroke-linejoin="round"/>
<path d="M181.799 12.0996V23.2998L67.1992 23.3994V12.1997C67.1992 5.89971 72.1992 0.699707 78.3992 0.699707L170.499 0.599609C176.799 0.699609 181.799 5.79961 181.799 12.0996Z" fill="#C4E4FF" stroke="#0033AA" stroke-miterlimit="10" stroke-linejoin="round"/>
<path d="M181.383 23.8306L67.6826 23.9785L67.7102 45.1787L181.41 45.0308L181.383 23.8306Z" fill="#204DB5" stroke="#0033AA" stroke-miterlimit="10" stroke-linejoin="round"/>
<path d="M108.8 12.0996H140.2" stroke="#0033AA" stroke-miterlimit="10" stroke-linecap="round" stroke-linejoin="round"/>
<path d="M67.4995 220C67.4995 226.3 72.4995 231.399 78.6995 231.399L170.8 231.3C177 231.3 182 226.2 182 219.8V208.6L67.3994 208.7L67.4995 220Z" fill="#C4E4FF" stroke="#0033AA" stroke-miterlimit="10" stroke-linejoin="round"/>
<path d="M77.3 38.5996L73 34.5996L77.3 30.5996" stroke="white" stroke-miterlimit="10" stroke-linecap="round" stroke-linejoin="round"/>
<path d="M87.1245 38.275L86.0171 38.2764L86.0088 31.878L87.1162 31.8765L87.1245 38.275ZM89.3727 33.5172L89.4042 34.0664C89.7552 33.6412 90.2163 33.4282 90.7876 33.4274C91.7779 33.4261 92.2825 33.9924 92.3016 35.1261L92.3056 38.2682L91.2378 38.2696L91.2338 35.1891C91.2334 34.8873 91.1672 34.6647 91.0351 34.5213C90.9061 34.375 90.6936 34.3021 90.3977 34.3024C89.967 34.303 89.6464 34.4983 89.436 34.8882L89.4404 38.272L88.3725 38.2734L88.3664 33.5185L89.3727 33.5172ZM94.7281 32.3544L94.7296 33.5102L95.569 33.5091L95.57 34.3001L94.7307 34.3012L94.7341 36.9555C94.7344 37.1371 94.7697 37.2689 94.8401 37.3509C94.9134 37.4299 95.0424 37.4693 95.227 37.469C95.35 37.4689 95.4745 37.4541 95.6005 37.4246L95.6015 38.2508C95.3585 38.3185 95.1241 38.3525 94.8985 38.3528C94.0782 38.3538 93.6675 37.9017 93.6663 36.9964L93.6628 34.3026L92.8806 34.3036L92.8795 33.5126L93.6618 33.5116L93.6603 32.3558L94.7281 32.3544ZM98.4889 38.3481C97.8121 38.349 97.2625 38.1373 96.8401 37.713C96.4206 37.2858 96.2104 36.7177 96.2095 36.0088L96.2093 35.8769C96.2087 35.4023 96.2989 34.9789 96.4801 34.6066C96.6642 34.2313 96.9216 33.9395 97.2524 33.731C97.5832 33.5226 97.9522 33.4181 98.3594 33.4176C99.0069 33.4167 99.5066 33.6226 99.8587 34.0353C100.214 34.4479 100.392 35.0321 100.393 35.788L100.393 36.2187L97.2864 36.2227C97.3191 36.6152 97.4499 36.9256 97.6787 37.1538C97.9105 37.382 98.2006 37.4959 98.5493 37.4955C99.0385 37.4948 99.4367 37.2966 99.7438 36.9007L100.32 37.4492C100.13 37.7337 99.8756 37.9552 99.5564 38.1138C99.2402 38.2695 98.8844 38.3476 98.4889 38.3481ZM98.3561 34.2745C98.0632 34.2749 97.826 34.3778 97.6446 34.5831C97.4662 34.7884 97.3523 35.0742 97.303 35.4404L99.3376 35.4378L99.3375 35.3587C99.3136 35.0013 99.2181 34.7319 99.0508 34.5505C98.8836 34.3661 98.652 34.2741 98.3561 34.2745ZM103.713 34.4741C103.573 34.4508 103.428 34.4393 103.278 34.4395C102.789 34.4401 102.46 34.6281 102.29 35.0033L102.294 38.2553L101.227 38.2566L101.22 33.5018L102.24 33.5004L102.267 34.0321C102.524 33.6187 102.881 33.4117 103.338 33.4111C103.491 33.4109 103.617 33.4313 103.716 33.4721L103.713 34.4741ZM105.378 33.4964L105.409 34.0456C105.76 33.6204 106.221 33.4074 106.793 33.4066C107.783 33.4053 108.287 33.9716 108.306 35.1053L108.311 38.2474L107.243 38.2488L107.239 35.1683C107.238 34.8665 107.172 34.6439 107.04 34.5005C106.911 34.3542 106.698 34.2813 106.403 34.2816C105.972 34.2822 105.651 34.4774 105.441 34.8674L105.445 38.2512L104.377 38.2525L104.371 33.4977L105.378 33.4964ZM112.244 38.2423C112.197 38.1516 112.155 38.0037 112.12 37.7986C111.781 38.1536 111.365 38.3314 110.873 38.332C110.395 38.3326 110.005 38.1969 109.703 37.9248C109.401 37.6528 109.25 37.316 109.249 36.9147C109.249 36.4078 109.436 36.0194 109.81 35.7494C110.188 35.4764 110.727 35.3395 111.427 35.3386L112.082 35.3377L112.081 35.0257C112.081 34.7796 112.012 34.5834 111.874 34.4371C111.736 34.2879 111.526 34.2135 111.245 34.2138C111.002 34.2141 110.803 34.2759 110.648 34.3992C110.493 34.5195 110.415 34.6734 110.416 34.8609L109.348 34.8623C109.347 34.6015 109.433 34.3583 109.606 34.1325C109.779 33.9037 110.013 33.7247 110.308 33.5954C110.607 33.4661 110.939 33.4012 111.306 33.4008C111.862 33.4 112.306 33.5401 112.638 33.8209C112.969 34.0988 113.14 34.4911 113.149 34.998L113.152 37.1425C113.152 37.5702 113.213 37.9115 113.333 38.1662L113.333 38.2409L112.244 38.2423ZM111.069 37.4748C111.28 37.4745 111.478 37.423 111.662 37.3202C111.85 37.2174 111.99 37.0796 112.084 36.9066L112.083 36.0101L111.507 36.0109C111.111 36.0114 110.814 36.0806 110.615 36.2186C110.416 36.3565 110.317 36.5515 110.317 36.8034C110.317 37.0085 110.385 37.1725 110.52 37.2953C110.658 37.4153 110.841 37.4751 111.069 37.4748ZM115.602 32.3273L115.604 33.4831L116.443 33.482L116.444 34.273L115.605 34.2741L115.608 36.9284C115.608 37.11 115.644 37.2418 115.714 37.3237C115.787 37.4027 115.916 37.4421 116.101 37.4419C116.224 37.4417 116.349 37.4269 116.474 37.3975L116.476 38.2236C116.232 38.2913 115.998 38.3253 115.773 38.3256C114.952 38.3267 114.541 37.8746 114.54 36.9693L114.537 34.2755L113.755 34.2765L113.754 33.4855L114.536 33.4844L114.534 32.3287L115.602 32.3273ZM118.405 38.2343L117.337 38.2357L117.331 33.4808L118.399 33.4794L118.405 38.2343ZM117.263 32.246C117.263 32.082 117.314 31.9457 117.416 31.8371C117.522 31.7286 117.671 31.6742 117.864 31.674C118.058 31.6737 118.207 31.7277 118.313 31.836C118.419 31.9442 118.471 32.0804 118.472 32.2445C118.472 32.4056 118.419 32.5404 118.314 32.649C118.209 32.7546 118.059 32.8075 117.866 32.8078C117.673 32.808 117.523 32.7555 117.418 32.6501C117.315 32.5419 117.263 32.4072 117.263 32.246ZM119.368 35.8117C119.368 35.3458 119.46 34.9268 119.644 34.5545C119.828 34.1792 120.087 33.8918 120.42 33.6921C120.754 33.4895 121.138 33.388 121.571 33.3874C122.213 33.3866 122.733 33.5924 123.132 34.005C123.534 34.4176 123.752 34.9651 123.785 35.6477L123.789 35.8982C123.79 36.367 123.7 36.786 123.519 37.1554C123.34 37.5248 123.083 37.8107 122.746 38.0133C122.413 38.2159 122.026 38.3175 121.587 38.3181C120.916 38.3189 120.378 38.097 119.973 37.6522C119.571 37.2045 119.369 36.6085 119.368 35.8644L119.368 35.8117ZM120.436 35.9026C120.437 36.3918 120.539 36.7755 120.741 37.0535C120.944 37.3287 121.225 37.466 121.585 37.4655C121.946 37.4651 122.225 37.3241 122.424 37.0426C122.626 36.761 122.727 36.3493 122.726 35.8073C122.725 35.3268 122.621 34.9461 122.412 34.6651C122.207 34.3841 121.927 34.2439 121.572 34.2443C121.224 34.2448 120.947 34.3843 120.742 34.6629C120.538 34.9386 120.436 35.3518 120.436 35.9026ZM125.68 33.47L125.712 34.0192C126.063 33.594 126.524 33.381 127.095 33.3802C128.085 33.3789 128.59 33.9452 128.609 35.0789L128.613 38.221L127.545 38.2224L127.541 35.1419C127.541 34.8401 127.475 34.6175 127.343 34.4741C127.214 34.3278 127.001 34.2549 126.705 34.2552C126.275 34.2558 125.954 34.4511 125.744 34.841L125.748 38.2248L124.68 38.2262L124.674 33.4713L125.68 33.47ZM132.546 38.2159C132.499 38.1252 132.458 37.9773 132.423 37.7722C132.083 38.1272 131.668 38.305 131.175 38.3056C130.698 38.3062 130.308 38.1705 130.006 37.8984C129.704 37.6264 129.552 37.2896 129.552 36.8883C129.551 36.3814 129.738 35.993 130.113 35.723C130.491 35.45 131.029 35.3131 131.73 35.3122L132.384 35.3113L132.384 34.9993C132.384 34.7532 132.315 34.557 132.177 34.4107C132.039 34.2615 131.829 34.1871 131.548 34.1874C131.305 34.1877 131.106 34.2495 130.951 34.3728C130.795 34.4931 130.718 34.647 130.718 34.8345L129.65 34.8359C129.65 34.5752 129.736 34.3319 129.909 34.1061C130.081 33.8773 130.315 33.6983 130.611 33.569C130.91 33.4397 131.242 33.3748 131.608 33.3744C132.165 33.3736 132.609 33.5137 132.941 33.7945C133.272 34.0724 133.442 34.4648 133.452 34.9716L133.455 37.1161C133.455 37.5438 133.516 37.8851 133.636 38.1398L133.636 38.2145L132.546 38.2159ZM131.372 37.4484C131.583 37.4481 131.781 37.3966 131.965 37.2938C132.152 37.191 132.293 37.0532 132.386 36.8802L132.385 35.9837L131.81 35.9845C131.414 35.985 131.117 36.0542 130.918 36.1922C130.719 36.3301 130.619 36.5251 130.62 36.777C130.62 36.9821 130.688 37.1461 130.822 37.2689C130.96 37.3889 131.144 37.4487 131.372 37.4484ZM135.71 38.2118L134.643 38.2132L134.634 31.4632L135.702 31.4618L135.71 38.2118ZM143.279 35.8729C143.28 36.6082 143.114 37.1958 142.78 37.6357C142.447 38.0727 141.999 38.2915 141.437 38.2923C140.915 38.2929 140.497 38.1221 140.184 37.7797L140.186 40.0341L139.119 40.0355L139.11 33.4525L140.094 33.4512L140.139 33.9346C140.452 33.5533 140.878 33.3623 141.417 33.3616C141.997 33.3609 142.451 33.5771 142.78 34.0102C143.112 34.4405 143.278 35.0394 143.279 35.8069L143.279 35.8729ZM142.216 35.782C142.215 35.3074 142.119 34.931 141.928 34.6529C141.741 34.3749 141.471 34.2361 141.119 34.2365C140.683 34.2371 140.37 34.4177 140.18 34.7783L140.182 36.8876C140.376 37.2565 140.693 37.4407 141.132 37.4401C141.472 37.4397 141.737 37.3031 141.927 37.0304C142.12 36.7547 142.216 36.3386 142.216 35.782ZM147.031 38.1971C146.984 38.1063 146.943 37.9584 146.907 37.7534C146.568 38.1083 146.152 38.2861 145.66 38.2868C145.182 38.2874 144.792 38.1517 144.49 37.8796C144.188 37.6075 144.037 37.2708 144.036 36.8694C144.036 36.3626 144.223 35.9742 144.597 35.7042C144.975 35.4312 145.514 35.2943 146.214 35.2934L146.869 35.2925L146.868 34.9805C146.868 34.7344 146.799 34.5382 146.661 34.3919C146.523 34.2427 146.314 34.1682 146.032 34.1686C145.789 34.1689 145.59 34.2307 145.435 34.3539C145.28 34.4743 145.202 34.6282 145.203 34.8157L144.135 34.8171C144.134 34.5563 144.221 34.313 144.393 34.0872C144.566 33.8585 144.8 33.6795 145.095 33.5502C145.394 33.4209 145.727 33.356 146.093 33.3555C146.649 33.3548 147.093 33.4949 147.425 33.7757C147.756 34.0536 147.927 34.4459 147.936 34.9527L147.939 37.0973C147.94 37.525 148 37.8662 148.12 38.121L148.121 38.1957L147.031 38.1971ZM145.856 37.4296C146.067 37.4293 146.265 37.3778 146.449 37.275C146.637 37.1722 146.777 37.0343 146.871 36.8614L146.87 35.9649L146.294 35.9656C145.898 35.9661 145.601 36.0354 145.402 36.1733C145.203 36.3113 145.104 36.5062 145.104 36.7582C145.104 36.9633 145.172 37.1272 145.307 37.2501C145.445 37.3701 145.628 37.4299 145.856 37.4296ZM150.65 36.6631L151.612 33.4362L152.751 33.4348L150.868 38.9128C150.579 39.713 150.087 40.1135 149.393 40.1144C149.238 40.1146 149.066 40.0885 148.879 40.036L148.878 39.2098L149.08 39.2228C149.349 39.2224 149.552 39.1723 149.686 39.0726C149.824 38.9757 149.932 38.8115 150.011 38.5799L150.164 38.171L148.488 33.4403L149.639 33.4388L150.65 36.6631ZM154.372 33.4327L154.404 33.9292C154.737 33.5391 155.194 33.3437 155.774 33.3429C156.41 33.3421 156.845 33.5847 157.08 34.0707C157.425 33.584 157.911 33.3402 158.538 33.3394C159.063 33.3387 159.452 33.4832 159.708 33.7729C159.966 34.0626 160.098 34.4902 160.105 35.0556L160.109 38.1801L159.041 38.1815L159.037 35.0877C159.037 34.786 158.97 34.5649 158.838 34.4244C158.706 34.284 158.488 34.2139 158.183 34.2143C157.94 34.2146 157.741 34.2808 157.586 34.4129C157.434 34.542 157.327 34.712 157.266 34.923L157.274 38.1838L156.207 38.1852L156.202 35.0563C156.187 34.4967 155.901 34.2173 155.344 34.218C154.917 34.2186 154.614 34.3933 154.435 34.7422L154.44 38.1875L153.372 38.1889L153.366 33.434L154.372 33.4327ZM163.299 38.2638C162.623 38.2647 162.073 38.053 161.651 37.6288C161.231 37.2016 161.021 36.6335 161.02 35.9245L161.02 35.7927C161.019 35.3181 161.109 34.8946 161.291 34.5223C161.475 34.1471 161.732 33.8552 162.063 33.6468C162.394 33.4383 162.763 33.3339 163.17 33.3333C163.817 33.3325 164.317 33.5384 164.669 33.951C165.024 34.3636 165.202 34.9479 165.203 35.7037L165.204 36.1344L162.097 36.1384C162.13 36.531 162.26 36.8414 162.489 37.0696C162.721 37.2978 163.011 37.4117 163.36 37.4112C163.849 37.4106 164.247 37.2123 164.554 36.8164L165.131 37.365C164.941 37.6494 164.686 37.8709 164.367 38.0295C164.051 38.1852 163.695 38.2633 163.299 38.2638ZM163.167 34.1903C162.874 34.1907 162.637 34.2935 162.455 34.4988C162.277 34.7041 162.163 34.9899 162.114 35.3562L164.148 35.3535L164.148 35.2744C164.124 34.9171 164.029 34.6476 163.861 34.4662C163.694 34.2819 163.463 34.1899 163.167 34.1903ZM167.024 33.4162L167.056 33.9655C167.407 33.5402 167.868 33.3272 168.439 33.3265C169.429 33.3252 169.934 33.8914 169.953 35.0252L169.957 38.1673L168.889 38.1687L168.885 35.0881C168.885 34.7864 168.819 34.5638 168.687 34.4204C168.557 34.2741 168.345 34.2011 168.049 34.2015C167.618 34.2021 167.298 34.3973 167.087 34.7872L167.092 38.171L166.024 38.1724L166.018 33.4175L167.024 33.4162ZM172.38 32.2535L172.381 33.4092L173.22 33.4082L173.221 34.1992L172.382 34.2003L172.385 36.8546C172.386 37.0362 172.421 37.168 172.491 37.2499C172.565 37.3289 172.694 37.3683 172.878 37.3681C173.001 37.3679 173.126 37.3531 173.252 37.3237L173.253 38.1498C173.01 38.2175 172.775 38.2515 172.55 38.2518C171.73 38.2529 171.319 37.8008 171.318 36.8955L171.314 34.2017L170.532 34.2027L170.531 33.4117L171.313 33.4106L171.312 32.2549L172.38 32.2535Z" fill="white"/>
<path d="M42.4995 234.8H11.1995C10.8995 234.8 10.5996 234.6 10.5996 234.2V225.1C10.5996 224.8 10.7995 224.5 11.1995 224.5H42.4995C42.7995 224.5 43.0996 224.7 43.0996 225.1V234.2C42.9996 234.5 42.7995 234.8 42.4995 234.8Z" fill="#FFB028" stroke="#0033AA" stroke-miterlimit="10" stroke-linejoin="round"/>
<path d="M38.1001 225.7H8.1001C7.8001 225.7 7.5 225.5 7.5 225.1V217.2C7.5 216.9 7.7001 216.6 8.1001 216.6H38.1001C38.4001 216.6 38.7 216.8 38.7 217.2V225.1C38.6 225.5 38.4001 225.7 38.1001 225.7Z" fill="#FFB028" stroke="#0033AA" stroke-miterlimit="10" stroke-linejoin="round"/>
<path d="M39.8997 216.7H12.3997C12.0997 216.7 11.7998 216.5 11.7998 216.1V208.2C11.7998 207.9 11.9997 207.6 12.3997 207.6H39.8997C40.1997 207.6 40.4998 207.8 40.4998 208.2V216.1C40.4998 216.4 40.1997 216.7 39.8997 216.7Z" fill="#FFB028" stroke="#0033AA" stroke-miterlimit="10" stroke-linejoin="round"/>
<path d="M40.6995 207.6H13.1995C12.8995 207.6 12.5996 207.4 12.5996 207V199.1C12.5996 198.8 12.7995 198.5 13.1995 198.5H40.6995C40.9995 198.5 41.2996 198.7 41.2996 199.1V207C41.1996 207.4 40.9995 207.6 40.6995 207.6Z" fill="#FFB028" stroke="#0033AA" stroke-miterlimit="10" stroke-linejoin="round"/>
<path d="M34.8997 198.6H7.39966C7.09966 198.6 6.7998 198.4 6.7998 198V190.1C6.7998 189.8 6.99966 189.5 7.39966 189.5H34.8997C35.1997 189.5 35.4998 189.7 35.4998 190.1V198C35.3998 198.3 35.1997 198.6 34.8997 198.6Z" fill="#FFB028" stroke="#0033AA" stroke-miterlimit="10" stroke-linejoin="round"/>
<path d="M35.6001 189.5H8.1001C7.8001 189.5 7.5 189.3 7.5 188.9V181C7.5 180.7 7.7001 180.4 8.1001 180.4H35.6001C35.9001 180.4 36.2 180.6 36.2 181V188.9C36.2 189.3 35.9001 189.5 35.6001 189.5Z" fill="#FFB028" stroke="#0033AA" stroke-miterlimit="10" stroke-linejoin="round"/>
<path d="M28.6995 180.5H1.19946C0.899463 180.5 0.599609 180.3 0.599609 179.9V172C0.599609 171.7 0.799463 171.4 1.19946 171.4H28.6995C28.9995 171.4 29.2996 171.6 29.2996 172V179.9C29.2996 180.2 28.9995 180.5 28.6995 180.5Z" fill="#FFB028" stroke="#0033AA" stroke-miterlimit="10" stroke-linejoin="round"/>
<path d="M71.6995 234.8H44.1995C43.8995 234.8 43.5996 234.6 43.5996 234.2V226.3C43.5996 226 43.7995 225.7 44.1995 225.7H71.6995C71.9995 225.7 72.2996 225.9 72.2996 226.3V234.2C72.2996 234.5 71.9995 234.8 71.6995 234.8Z" fill="#FFB028" stroke="#0033AA" stroke-miterlimit="10" stroke-linejoin="round"/>
<path d="M71.6995 225.7H44.1995C43.8995 225.7 43.5996 225.5 43.5996 225.1V217.2C43.5996 216.9 43.7995 216.6 44.1995 216.6H71.6995C71.9995 216.6 72.2996 216.8 72.2996 217.2V225.1C72.2996 225.5 71.9995 225.7 71.6995 225.7Z" fill="#FFB028" stroke="#0033AA" stroke-miterlimit="10" stroke-linejoin="round"/>
<path d="M69.4995 216.7H41.9995C41.6995 216.7 41.3994 216.5 41.3994 216.1V208.2C41.3994 207.9 41.5995 207.6 41.9995 207.6H69.4995C69.7995 207.6 70.0996 207.8 70.0996 208.2V216.1C70.0996 216.4 69.7995 216.7 69.4995 216.7Z" fill="#FFB028" stroke="#0033AA" stroke-miterlimit="10" stroke-linejoin="round"/>
<path d="M71.6995 207.6H44.1995C43.8995 207.6 43.5996 207.4 43.5996 207V199.1C43.5996 198.8 43.7995 198.5 44.1995 198.5H71.6995C71.9995 198.5 72.2996 198.7 72.2996 199.1V207C72.2996 207.4 71.9995 207.6 71.6995 207.6Z" fill="#FFB028" stroke="#0033AA" stroke-miterlimit="10" stroke-linejoin="round"/>
<path d="M68.3997 198.6H40.8997C40.5997 198.6 40.2998 198.4 40.2998 198V190.1C40.2998 189.8 40.4997 189.5 40.8997 189.5H68.3997C68.6997 189.5 68.9998 189.7 68.9998 190.1V198C68.9998 198.3 68.6997 198.6 68.3997 198.6Z" fill="#FFB028" stroke="#0033AA" stroke-miterlimit="10" stroke-linejoin="round"/>
<path d="M55.3997 189.6L30.8997 177.1C30.5997 177 30.4998 176.6 30.6998 176.4L34.2999 169.3C34.3999 169 34.7998 168.9 34.9998 169.1L59.4998 181.6C59.7998 181.7 59.8998 182.1 59.6998 182.3L56.0999 189.4C55.9999 189.6 55.5997 189.7 55.3997 189.6Z" fill="#FFB028" stroke="#0033AA" stroke-miterlimit="10" stroke-linejoin="round"/>
<path d="M63.2 206.6C58.2 216.4 62.0999 228.3 71.8999 233.2C81.6999 238.2 93.6 234.299 98.5 224.499C103.5 214.699 99.6001 202.799 89.8001 197.899C80 192.999 68.1 196.9 63.2 206.6Z" fill="#FFB028" stroke="#0033AA" stroke-miterlimit="10" stroke-linejoin="round"/>
<path d="M69.0995 209.7C65.7995 216.2 68.3993 224.101 74.8993 227.301C81.3993 230.601 89.2994 228 92.4994 221.5C95.7994 215 93.1994 207.1 86.6994 203.9C80.2994 200.6 72.3995 203.2 69.0995 209.7Z" fill="#FFCD77"/>
<path d="M190.7 235.4C210.969 235.4 227.4 218.969 227.4 198.7C227.4 178.431 210.969 162 190.7 162C170.431 162 154 178.431 154 198.7C154 218.969 170.431 235.4 190.7 235.4Z" fill="#C9F3FF" stroke="#0033AA" stroke-miterlimit="10" stroke-linecap="round" stroke-linejoin="round"/>
<path d="M190.7 235.4C210.969 235.4 227.4 218.969 227.4 198.7C227.4 178.431 210.969 162 190.7 162C170.431 162 154 178.431 154 198.7C154 218.969 170.431 235.4 190.7 235.4Z" stroke="#0033AA" stroke-miterlimit="10" stroke-linecap="round" stroke-linejoin="round"/>
<path d="M190.7 161.899V235.3" stroke="#0033AA" stroke-miterlimit="10" stroke-linecap="round" stroke-linejoin="round"/>
<path d="M227.4 198.6H154" stroke="#0033AA" stroke-miterlimit="10" stroke-linecap="round" stroke-linejoin="round"/>
<path d="M222.1 181.6H159.3" stroke="#0033AA" stroke-miterlimit="10" stroke-linecap="round" stroke-linejoin="round"/>
<path d="M222.1 215.6H159.3" stroke="#0033AA" stroke-miterlimit="10" stroke-linecap="round" stroke-linejoin="round"/>
<path d="M180.5 234C173.7 225 169.5 212.4 169.5 198.5C169.5 184.8 173.6 172.399 180.2 163.399" stroke="#0033AA" stroke-miterlimit="10" stroke-linecap="round" stroke-linejoin="round"/>
<path d="M200.6 163.3C207.3 172.3 211.4 184.8 211.4 198.5C211.4 212.5 207.1 225.1 200.3 234.1" stroke="#0033AA" stroke-miterlimit="10" stroke-linecap="round" stroke-linejoin="round"/>
<path d="M86.6442 111.426V110.801H91.0078V111.426H89.1783V116.619H88.4737V111.426H86.6442ZM93.1442 116.71C92.7502 116.71 92.4046 116.616 92.1072 116.429C91.8118 116.241 91.5807 115.979 91.4141 115.642C91.2493 115.305 91.1669 114.911 91.1669 114.46C91.1669 114.006 91.2493 113.609 91.4141 113.27C91.5807 112.931 91.8118 112.667 92.1072 112.48C92.4046 112.292 92.7502 112.199 93.1442 112.199C93.5381 112.199 93.8828 112.292 94.1783 112.48C94.4756 112.667 94.7067 112.931 94.8714 113.27C95.0381 113.609 95.1214 114.006 95.1214 114.46C95.1214 114.911 95.0381 115.305 94.8714 115.642C94.7067 115.979 94.4756 116.241 94.1783 116.429C93.8828 116.616 93.5381 116.71 93.1442 116.71ZM93.1442 116.108C93.4434 116.108 93.6896 116.031 93.8828 115.878C94.076 115.724 94.219 115.523 94.3118 115.273C94.4046 115.023 94.451 114.752 94.451 114.46C94.451 114.168 94.4046 113.897 94.3118 113.645C94.219 113.393 94.076 113.189 93.8828 113.034C93.6896 112.879 93.4434 112.801 93.1442 112.801C92.8449 112.801 92.5987 112.879 92.4055 113.034C92.2124 113.189 92.0694 113.393 91.9766 113.645C91.8838 113.897 91.8374 114.168 91.8374 114.46C91.8374 114.752 91.8838 115.023 91.9766 115.273C92.0694 115.523 92.2124 115.724 92.4055 115.878C92.5987 116.031 92.8449 116.108 93.1442 116.108Z" fill="#0033AA"/>
<path d="M87.269 73.6191V67.801H90.7576V68.426H87.9735V70.3919H90.4963V71.0169H87.9735V73.6191H87.269ZM91.8265 73.6191V69.2555H92.4743V69.9146H92.5197C92.5993 69.6987 92.7432 69.5235 92.9515 69.389C93.1599 69.2546 93.3947 69.1873 93.6561 69.1873C93.7053 69.1873 93.7669 69.1883 93.8407 69.1902C93.9146 69.1921 93.9705 69.1949 94.0083 69.1987V69.8805C93.9856 69.8748 93.9335 69.8663 93.8521 69.8549C93.7725 69.8417 93.6883 69.835 93.5993 69.835C93.3871 69.835 93.1977 69.8796 93.0311 69.9686C92.8663 70.0557 92.7356 70.1769 92.639 70.3322C92.5443 70.4856 92.497 70.6608 92.497 70.8578V73.6191H91.8265ZM96.443 73.71C96.0491 73.71 95.7034 73.6163 95.4061 73.4288C95.1106 73.2413 94.8796 72.979 94.7129 72.6419C94.5481 72.3047 94.4657 71.9108 94.4657 71.46C94.4657 71.0055 94.5481 70.6087 94.7129 70.2697C94.8796 69.9307 95.1106 69.6674 95.4061 69.4799C95.7034 69.2924 96.0491 69.1987 96.443 69.1987C96.8369 69.1987 97.1816 69.2924 97.4771 69.4799C97.7744 69.6674 98.0055 69.9307 98.1703 70.2697C98.3369 70.6087 98.4203 71.0055 98.4203 71.46C98.4203 71.9108 98.3369 72.3047 98.1703 72.6419C98.0055 72.979 97.7744 73.2413 97.4771 73.4288C97.1816 73.6163 96.8369 73.71 96.443 73.71ZM96.443 73.1078C96.7422 73.1078 96.9885 73.0311 97.1816 72.8777C97.3748 72.7243 97.5178 72.5225 97.6106 72.2725C97.7034 72.0225 97.7498 71.7517 97.7498 71.46C97.7498 71.1684 97.7034 70.8966 97.6106 70.6447C97.5178 70.3928 97.3748 70.1892 97.1816 70.0339C96.9885 69.8786 96.7422 69.801 96.443 69.801C96.1438 69.801 95.8975 69.8786 95.7044 70.0339C95.5112 70.1892 95.3682 70.3928 95.2754 70.6447C95.1826 70.8966 95.1362 71.1684 95.1362 71.46C95.1362 71.7517 95.1826 72.0225 95.2754 72.2725C95.3682 72.5225 95.5112 72.7243 95.7044 72.8777C95.8975 73.0311 96.1438 73.1078 96.443 73.1078ZM99.4437 73.6191V69.2555H100.091V69.9373H100.148C100.239 69.7044 100.386 69.5235 100.589 69.3947C100.791 69.264 101.035 69.1987 101.319 69.1987C101.607 69.1987 101.846 69.264 102.037 69.3947C102.231 69.5235 102.381 69.7044 102.489 69.9373H102.535C102.646 69.7119 102.814 69.533 103.037 69.4004C103.261 69.2659 103.529 69.1987 103.841 69.1987C104.232 69.1987 104.551 69.3208 104.799 69.5652C105.047 69.8076 105.171 70.1854 105.171 70.6987V73.6191H104.501V70.6987C104.501 70.3767 104.412 70.1466 104.236 70.0083C104.06 69.8701 103.853 69.801 103.614 69.801C103.307 69.801 103.07 69.8938 102.901 70.0794C102.733 70.2631 102.648 70.496 102.648 70.7782V73.6191H101.966V70.6305C101.966 70.3824 101.886 70.1826 101.725 70.0311C101.564 69.8777 101.357 69.801 101.103 69.801C100.929 69.801 100.766 69.8474 100.614 69.9402C100.465 70.033 100.343 70.1618 100.251 70.3265C100.16 70.4894 100.114 70.6779 100.114 70.8919V73.6191H99.4437Z" fill="#0033AA"/>
<path d="M102.599 87.4986C102.599 91.9986 98.8992 95.6988 94.3992 95.6988C89.8992 95.6988 86.1992 91.9986 86.1992 87.4986C86.1992 82.9986 89.8992 79.2989 94.3992 79.2989C98.8992 79.1989 102.599 82.8986 102.599 87.4986Z" fill="#279BFF" stroke="#0033AA" stroke-miterlimit="10" stroke-linejoin="round"/>
<path d="M108.311 93.5469H163.211V89.0469H108.311V93.5469Z" fill="#C4E4FF"/>
<path d="M108.369 85.875H138.169V81.375H108.369V85.875Z" fill="#C4E4FF"/>
<path d="M102.599 130.499C102.599 134.999 98.8992 138.699 94.3992 138.699C89.8992 138.699 86.1992 134.999 86.1992 130.499C86.1992 125.999 89.8992 122.299 94.3992 122.299C98.8992 122.199 102.599 125.899 102.599 130.499Z" fill="#279BFF" stroke="#0033AA" stroke-miterlimit="10" stroke-linejoin="round"/>
<path d="M108.311 136.547H163.211V132.047H108.311V136.547Z" fill="#C4E4FF"/>
<path d="M108.369 128.875H138.169V124.375H108.369V128.875Z" fill="#C4E4FF"/>
<path d="M145.1 188.8H104C102.3 188.8 100.899 187.4 100.899 185.7V174.1C100.899 172.4 102.3 171 104 171H145.1C146.8 171 148.199 172.4 148.199 174.1V185.7C148.299 187.4 146.9 188.8 145.1 188.8Z" fill="#204DB5" stroke="#0033AA" stroke-miterlimit="10" stroke-linecap="round" stroke-linejoin="round"/>
<path d="M119.021 179.828V181.672H117.943V176.438H119.985C120.378 176.438 120.723 176.51 121.02 176.654C121.319 176.798 121.549 177.003 121.71 177.269C121.871 177.532 121.951 177.833 121.951 178.171C121.951 178.684 121.775 179.089 121.422 179.386C121.073 179.68 120.587 179.828 119.967 179.828H119.021ZM119.021 178.954H119.985C120.27 178.954 120.487 178.887 120.635 178.753C120.786 178.619 120.862 178.427 120.862 178.178C120.862 177.922 120.786 177.714 120.635 177.556C120.484 177.398 120.276 177.316 120.01 177.312H119.021V178.954ZM125.01 180.594H123.119L122.76 181.672H121.613L123.561 176.438H124.561L126.52 181.672H125.373L125.01 180.594ZM123.41 179.72H124.719L124.061 177.761L123.41 179.72ZM128.274 178.796L129.363 176.438H130.542L128.824 179.774V181.672H127.727V179.774L126.009 176.438H127.192L128.274 178.796Z" fill="white"/>
</svg>
