<svg width="256" height="259" viewBox="0 0 256 259" fill="none" xmlns="http://www.w3.org/2000/svg">
<path d="M255.4 223L1.2002 223.5L58.3003 258.2L255.4 223Z" fill="#EBF6FF"/>
<path d="M1.2002 223.5L255.4 223" stroke="#0033AA" stroke-miterlimit="10" stroke-linecap="round" stroke-linejoin="round"/>
<path d="M185.278 23.3304L70.6777 23.4795L70.9189 208.78L185.519 208.631L185.278 23.3304Z" stroke="#0033AA" stroke-miterlimit="10" stroke-linecap="round" stroke-linejoin="round"/>
<path d="M185.3 12.0996V23.2998L70.7002 23.3994V12.1997C70.7002 5.89971 75.7001 0.699707 81.9001 0.699707L174 0.599609C180.2 0.699609 185.3 5.79961 185.3 12.0996Z" fill="#C4E4FF" stroke="#0033AA" stroke-miterlimit="10" stroke-linejoin="round"/>
<path d="M184.884 23.8306L71.1836 23.9785L71.2112 45.1787L184.911 45.0308L184.884 23.8306Z" fill="#204DB5" stroke="#0033AA" stroke-miterlimit="10" stroke-linejoin="round"/>
<path d="M112.301 12.0996H143.701" stroke="#0033AA" stroke-miterlimit="10" stroke-linecap="round" stroke-linejoin="round"/>
<path d="M71.0005 220C71.0005 226.3 76.0004 231.399 82.2004 231.399L174.301 231.3C180.501 231.3 185.5 226.2 185.5 219.8V208.6L70.9004 208.7L71.0005 220Z" fill="#C4E4FF" stroke="#0033AA" stroke-miterlimit="10" stroke-linejoin="round"/>
<path d="M80.8 38.5996L76.5 34.5996L80.8 30.5996" stroke="white" stroke-miterlimit="10" stroke-linecap="round" stroke-linejoin="round"/>
<path d="M100.493 38.003L100.484 31.4243L102.739 31.4214C103.483 31.4204 104.05 31.5688 104.439 31.8665C104.827 32.1642 105.022 32.6082 105.023 33.1986C105.024 33.4999 104.943 33.7711 104.78 34.0123C104.618 34.2535 104.38 34.4405 104.067 34.5735C104.423 34.6694 104.697 34.8513 104.89 35.1191C105.086 35.3839 105.185 35.7031 105.185 36.0766C105.186 36.6941 104.988 37.1688 104.59 37.5007C104.196 37.8325 103.63 37.999 102.892 37.9999L100.493 38.003ZM101.632 35.033L101.635 37.0888L102.905 37.0872C103.263 37.0867 103.543 36.9975 103.745 36.8195C103.946 36.6415 104.047 36.3944 104.046 36.0781C104.045 35.3943 103.696 35.0454 102.997 35.0312L101.632 35.033ZM101.631 34.1926L102.752 34.1911C103.107 34.1907 103.384 34.1105 103.583 33.9506C103.784 33.7876 103.885 33.5586 103.885 33.2634C103.884 32.9381 103.79 32.7032 103.604 32.5589C103.42 32.4145 103.132 32.3426 102.74 32.3431L101.629 32.3446L101.631 34.1926ZM109.146 37.9918C109.097 37.8985 109.055 37.7464 109.018 37.5356C108.67 37.9005 108.242 38.0833 107.736 38.084C107.245 38.0846 106.844 37.9451 106.534 37.6653C106.223 37.3856 106.067 37.0394 106.067 36.6267C106.066 36.1056 106.258 35.7062 106.644 35.4286C107.032 35.148 107.586 35.0072 108.306 35.0062L108.979 35.0054L108.979 34.6846C108.978 34.4315 108.907 34.2298 108.765 34.0794C108.624 33.9259 108.408 33.8494 108.119 33.8498C107.869 33.8501 107.664 33.9136 107.505 34.0404C107.345 34.1641 107.266 34.3223 107.266 34.5151L106.168 34.5165C106.168 34.2484 106.256 33.9983 106.434 33.7661C106.611 33.5309 106.852 33.3469 107.156 33.2139C107.463 33.081 107.805 33.0143 108.181 33.0138C108.754 33.0131 109.21 33.1571 109.551 33.4458C109.892 33.7315 110.067 34.1349 110.077 34.656L110.079 36.861C110.08 37.3008 110.142 37.6516 110.266 37.9135L110.266 37.9903L109.146 37.9918ZM107.938 37.2026C108.155 37.2024 108.358 37.1494 108.548 37.0437C108.741 36.938 108.885 36.7963 108.981 36.6184L108.98 35.6967L108.388 35.6974C107.981 35.698 107.676 35.7692 107.471 35.911C107.266 36.0528 107.164 36.2533 107.165 36.5123C107.165 36.7232 107.234 36.8918 107.373 37.0181C107.515 37.1414 107.703 37.2029 107.938 37.2026ZM112.399 37.9876L111.301 37.989L111.292 31.0488L112.39 31.0474L112.399 37.9876ZM116.52 37.9822C116.471 37.8889 116.429 37.7368 116.392 37.526C116.043 37.8909 115.616 38.0737 115.11 38.0744C114.619 38.075 114.218 37.9355 113.907 37.6558C113.597 37.376 113.441 37.0298 113.441 36.6171C113.44 36.096 113.632 35.6966 114.018 35.419C114.406 35.1384 114.96 34.9976 115.68 34.9967L116.353 34.9958L116.353 34.675C116.352 34.4219 116.281 34.2202 116.139 34.0698C115.998 33.9164 115.782 33.8398 115.493 33.8402C115.243 33.8405 115.038 33.904 114.879 34.0308C114.719 34.1545 114.64 34.3127 114.64 34.5055L113.542 34.5069C113.542 34.2388 113.63 33.9887 113.808 33.7565C113.985 33.5214 114.226 33.3373 114.53 33.2044C114.837 33.0714 115.179 33.0047 115.555 33.0042C116.127 33.0035 116.584 33.1475 116.925 33.4362C117.266 33.7219 117.441 34.1253 117.451 34.6464L117.453 36.8514C117.454 37.2912 117.516 37.642 117.64 37.9039L117.64 37.9807L116.52 37.9822ZM115.312 37.1931C115.529 37.1928 115.732 37.1398 115.922 37.0341C116.115 36.9284 116.259 36.7867 116.355 36.6088L116.354 35.6871L115.762 35.6879C115.355 35.6884 115.05 35.7596 114.845 35.9014C114.64 36.0433 114.538 36.2437 114.539 36.5028C114.539 36.7136 114.608 36.8822 114.747 37.0085C114.889 37.1319 115.077 37.1934 115.312 37.1931ZM119.617 33.0893L119.65 33.6541C120.011 33.2168 120.485 32.9978 121.072 32.997C122.09 32.9957 122.609 33.5779 122.629 34.7436L122.633 37.9743L121.535 37.9757L121.531 34.8083C121.53 34.4981 121.462 34.2692 121.327 34.1218C121.194 33.9713 120.975 33.8963 120.671 33.8967C120.228 33.8973 119.899 34.098 119.682 34.4989L119.687 37.9781L118.589 37.9795L118.583 33.0906L119.617 33.0893ZM125.763 37.184C126.037 37.1836 126.265 37.1035 126.445 36.9436C126.626 36.7837 126.722 36.5863 126.733 36.3513L127.768 36.35C127.756 36.6543 127.662 36.939 127.485 37.2043C127.307 37.4666 127.067 37.6748 126.762 37.8288C126.458 37.9828 126.13 38.0601 125.778 38.0605C125.094 38.0614 124.552 37.8407 124.15 37.3984C123.749 36.9562 123.548 36.3449 123.547 35.5648L123.547 35.4518C123.546 34.7078 123.744 34.1126 124.141 33.6663C124.538 33.217 125.08 32.9918 125.767 32.9909C126.348 32.9902 126.821 33.1598 127.186 33.4997C127.554 33.8366 127.747 34.2806 127.766 34.8318L126.731 34.8332C126.719 34.5531 126.622 34.3227 126.441 34.1422C126.263 33.9617 126.036 33.8717 125.759 33.872C125.403 33.8725 125.129 34.0024 124.937 34.2617C124.744 34.518 124.647 34.9082 124.645 35.4323L124.645 35.6085C124.646 36.1387 124.741 36.5347 124.931 36.7965C125.124 37.0553 125.402 37.1845 125.763 37.184ZM130.752 38.0541C130.057 38.055 129.492 37.8373 129.057 37.4011C128.626 36.9619 128.41 36.3778 128.409 35.6488L128.409 35.5133C128.408 35.0253 128.501 34.5899 128.687 34.2071C128.876 33.8213 129.141 33.5212 129.481 33.3069C129.821 33.0926 130.201 32.9852 130.619 32.9846C131.285 32.9838 131.799 33.1955 132.161 33.6197C132.526 34.044 132.709 34.6447 132.71 35.4218L132.711 35.8646L129.516 35.8688C129.55 36.2724 129.684 36.5915 129.92 36.8262C130.158 37.0608 130.456 37.1779 130.815 37.1774C131.318 37.1768 131.727 36.9729 132.043 36.5658L132.635 37.1299C132.44 37.4223 132.178 37.6501 131.85 37.8132C131.525 37.9732 131.159 38.0535 130.752 38.0541ZM130.616 33.8657C130.315 33.8661 130.071 33.9719 129.884 34.183C129.701 34.3941 129.584 34.6879 129.533 35.0645L131.625 35.0618L131.625 34.9804C131.6 34.613 131.502 34.336 131.33 34.1494C131.158 33.9599 130.92 33.8653 130.616 33.8657ZM137.12 35.511L137.123 37.9554L135.98 37.9569L135.972 31.3782L138.488 31.3749C139.223 31.3739 139.806 31.5645 140.238 31.9465C140.672 32.3284 140.889 32.8342 140.89 33.4638C140.891 34.1084 140.679 34.6102 140.255 34.9692C139.834 35.3282 139.242 35.5082 138.48 35.5092L137.12 35.511ZM137.119 34.5938L138.492 34.592C138.899 34.5914 139.209 34.4962 139.423 34.3061C139.636 34.113 139.743 33.8358 139.743 33.4743C139.742 33.1189 139.633 32.8359 139.416 32.6253C139.199 32.4117 138.901 32.3021 138.521 32.2966L137.116 32.2984L137.119 34.5938ZM143.883 38.037C143.187 38.0379 142.622 37.8202 142.188 37.384C141.756 36.9448 141.54 36.3607 141.539 35.6318L141.539 35.4962C141.538 35.0082 141.631 34.5728 141.817 34.19C142.007 33.8042 142.271 33.5042 142.612 33.2898C142.952 33.0755 143.331 32.9681 143.75 32.9676C144.415 32.9667 144.929 33.1784 145.291 33.6026C145.656 34.0269 145.839 34.6276 145.84 35.4048L145.841 35.8476L142.646 35.8517C142.68 36.2553 142.815 36.5744 143.05 36.8091C143.288 37.0437 143.587 37.1608 143.945 37.1604C144.448 37.1597 144.857 36.9558 145.173 36.5488L145.766 37.1128C145.57 37.4052 145.309 37.633 144.98 37.7961C144.655 37.9562 144.289 38.0365 143.883 38.037ZM143.746 33.8486C143.445 33.849 143.201 33.9548 143.015 34.1659C142.831 34.377 142.714 34.6708 142.664 35.0474L144.756 35.0447L144.755 34.9634C144.731 34.5959 144.633 34.3189 144.461 34.1324C144.289 33.9428 144.051 33.8483 143.746 33.8486ZM148.853 38.0305C148.157 38.0314 147.592 37.8138 147.158 37.3776C146.726 36.9383 146.51 36.3543 146.509 35.6253L146.509 35.4897C146.509 35.0018 146.601 34.5664 146.788 34.1836C146.977 33.7978 147.242 33.4977 147.582 33.2834C147.922 33.0691 148.301 32.9616 148.72 32.9611C149.386 32.9602 149.899 33.1719 150.262 33.5962C150.627 34.0204 150.81 34.6211 150.811 35.3983L150.811 35.8411L147.617 35.8453C147.65 36.2489 147.785 36.568 148.02 36.8026C148.258 37.0373 148.557 37.1544 148.915 37.1539C149.418 37.1532 149.828 36.9494 150.143 36.5423L150.736 37.1063C150.541 37.3988 150.279 37.6265 149.951 37.7896C149.626 37.9497 149.26 38.03 148.853 38.0305ZM148.717 33.8422C148.415 33.8426 148.171 33.9483 147.985 34.1594C147.802 34.3705 147.684 34.6644 147.634 35.041L149.726 35.0382L149.726 34.9569C149.701 34.5895 149.603 34.3125 149.431 34.1259C149.259 33.9364 149.021 33.8418 148.717 33.8422ZM153.256 35.8379L152.768 36.3401L152.77 37.9351L151.672 37.9365L151.663 30.9963L152.761 30.9949L152.767 34.9981L153.109 34.5685L154.458 33.044L155.778 33.0423L153.964 35.0824L155.978 37.9309L154.709 37.9326L153.256 35.8379Z" fill="white"/>
<path d="M100.2 68.2002C100.2 72.7002 96.4998 76.3999 91.9998 76.3999C87.4998 76.3999 83.7998 72.7002 83.7998 68.2002C83.7998 63.7002 87.4998 60 91.9998 60C96.4998 59.9 100.2 63.6002 100.2 68.2002Z" fill="#279BFF" stroke="#0033AA" stroke-miterlimit="10" stroke-linejoin="round"/>
<path d="M100.2 110.2C100.2 114.7 96.4998 118.4 91.9998 118.4C87.4998 118.4 83.7998 114.7 83.7998 110.2C83.7998 105.7 87.4998 102 91.9998 102C96.4998 101.9 100.2 105.6 100.2 110.2Z" fill="#279BFF" stroke="#0033AA" stroke-miterlimit="10" stroke-linejoin="round"/>
<path d="M100.2 152.101C100.2 156.601 96.4998 160.301 91.9998 160.301C87.4998 160.301 83.7998 156.601 83.7998 152.101C83.7998 147.601 87.4998 143.9 91.9998 143.9C96.4998 143.9 100.2 147.601 100.2 152.101Z" fill="#279BFF" stroke="#0033AA" stroke-miterlimit="10" stroke-linejoin="round"/>
<path d="M112.975 65.754L113.488 61.2324H118.474V62.7049H114.936L114.717 64.6175C115.136 64.3934 115.582 64.2814 116.055 64.2814C116.902 64.2814 117.566 64.5441 118.047 65.0696C118.527 65.5951 118.768 66.3304 118.768 67.2754C118.768 67.8498 118.645 68.3651 118.401 68.8213C118.161 69.2735 117.814 69.6258 117.362 69.8784C116.91 70.1269 116.376 70.2511 115.761 70.2511C115.224 70.2511 114.725 70.1432 114.264 69.9273C113.804 69.7073 113.439 69.3997 113.171 69.0046C112.906 68.6095 112.765 68.1594 112.749 67.6543H114.497C114.533 68.0249 114.662 68.3142 114.881 68.5219C115.106 68.7256 115.397 68.8274 115.755 68.8274C116.154 68.8274 116.462 68.6848 116.678 68.3997C116.894 68.1105 117.002 67.7031 117.002 67.1777C117.002 66.6725 116.878 66.2856 116.629 66.0167C116.381 65.7479 116.028 65.6134 115.572 65.6134C115.152 65.6134 114.812 65.7234 114.552 65.9434L114.38 66.1022L112.975 65.754ZM125.886 66.4505C125.886 67.6807 125.631 68.6217 125.122 69.2735C124.613 69.9252 123.868 70.2511 122.886 70.2511C121.916 70.2511 121.175 69.9313 120.662 69.2918C120.149 68.6523 119.886 67.7357 119.874 66.5422V64.9046C119.874 63.6622 120.13 62.7192 120.643 62.0756C121.161 61.432 121.904 61.1102 122.874 61.1102C123.843 61.1102 124.585 61.4299 125.098 62.0695C125.611 62.7049 125.874 63.6194 125.886 64.813V66.4505ZM124.12 64.6541C124.12 63.9168 124.018 63.3811 123.815 63.0471C123.615 62.709 123.301 62.54 122.874 62.54C122.458 62.54 122.151 62.7009 121.951 63.0227C121.756 63.3404 121.652 63.8394 121.639 64.5197V66.6827C121.639 67.4078 121.737 67.9475 121.933 68.3019C122.132 68.6523 122.45 68.8274 122.886 68.8274C123.318 68.8274 123.629 68.6584 123.821 68.3203C124.012 67.9822 124.112 67.4648 124.12 66.7683V64.6541ZM133.072 66.4505C133.072 67.6807 132.817 68.6217 132.308 69.2735C131.799 69.9252 131.053 70.2511 130.072 70.2511C129.102 70.2511 128.361 69.9313 127.847 69.2918C127.334 68.6523 127.071 67.7357 127.059 66.5422V64.9046C127.059 63.6622 127.316 62.7192 127.829 62.0756C128.346 61.432 129.09 61.1102 130.059 61.1102C131.029 61.1102 131.77 61.4299 132.283 62.0695C132.797 62.7049 133.06 63.6194 133.072 64.813V66.4505ZM131.306 64.6541C131.306 63.9168 131.204 63.3811 131 63.0471C130.801 62.709 130.487 62.54 130.059 62.54C129.644 62.54 129.336 62.7009 129.137 63.0227C128.941 63.3404 128.837 63.8394 128.825 64.5197V66.6827C128.825 67.4078 128.923 67.9475 129.118 68.3019C129.318 68.6523 129.636 68.8274 130.072 68.8274C130.503 68.8274 130.815 68.6584 131.006 68.3203C131.198 67.9822 131.298 67.4648 131.306 66.7683V64.6541ZM134.434 69.2613C134.434 68.9802 134.528 68.7521 134.715 68.5769C134.907 68.4017 135.145 68.3142 135.43 68.3142C135.719 68.3142 135.958 68.4017 136.145 68.5769C136.337 68.7521 136.432 68.9802 136.432 69.2613C136.432 69.5382 136.339 69.7643 136.151 69.9395C135.964 70.1106 135.724 70.1961 135.43 70.1961C135.141 70.1961 134.903 70.1106 134.715 69.9395C134.528 69.7643 134.434 69.5382 134.434 69.2613ZM143.899 66.4505C143.899 67.6807 143.644 68.6217 143.135 69.2735C142.626 69.9252 141.881 70.2511 140.899 70.2511C139.929 70.2511 139.188 69.9313 138.675 69.2918C138.162 68.6523 137.899 67.7357 137.887 66.5422V64.9046C137.887 63.6622 138.143 62.7192 138.656 62.0756C139.174 61.432 139.917 61.1102 140.887 61.1102C141.856 61.1102 142.598 61.4299 143.111 62.0695C143.624 62.7049 143.887 63.6194 143.899 64.813V66.4505ZM142.133 64.6541C142.133 63.9168 142.031 63.3811 141.828 63.0471C141.628 62.709 141.314 62.54 140.887 62.54C140.471 62.54 140.164 62.7009 139.964 63.0227C139.769 63.3404 139.665 63.8394 139.652 64.5197V66.6827C139.652 67.4078 139.75 67.9475 139.946 68.3019C140.145 68.6523 140.463 68.8274 140.899 68.8274C141.331 68.8274 141.642 68.6584 141.834 68.3203C142.025 67.9822 142.125 67.4648 142.133 66.7683V64.6541ZM151.085 66.4505C151.085 67.6807 150.83 68.6217 150.321 69.2735C149.812 69.9252 149.066 70.2511 148.085 70.2511C147.115 70.2511 146.374 69.9313 145.86 69.2918C145.347 68.6523 145.084 67.7357 145.072 66.5422V64.9046C145.072 63.6622 145.329 62.7192 145.842 62.0756C146.359 61.432 147.103 61.1102 148.072 61.1102C149.042 61.1102 149.783 61.4299 150.297 62.0695C150.81 62.7049 151.073 63.6194 151.085 64.813V66.4505ZM149.319 64.6541C149.319 63.9168 149.217 63.3811 149.013 63.0471C148.814 62.709 148.5 62.54 148.072 62.54C147.657 62.54 147.349 62.7009 147.15 63.0227C146.954 63.3404 146.85 63.8394 146.838 64.5197V66.6827C146.838 67.4078 146.936 67.9475 147.131 68.3019C147.331 68.6523 147.649 68.8274 148.085 68.8274C148.516 68.8274 148.828 68.6584 149.019 68.3203C149.211 67.9822 149.311 67.4648 149.319 66.7683V64.6541ZM157.983 61.2324L160.268 67.6848L162.541 61.2324H164.949V70.1289H163.11V67.697L163.293 63.4993L160.892 70.1289H159.633L157.238 63.5054L157.421 67.697V70.1289H155.588V61.2324H157.983ZM168.493 68.6563H172.978V70.1289H166.202V69.0535L170.601 62.7172H166.208V61.2324H172.88V62.2833L168.493 68.6563ZM181.373 70.1289H179.54L175.972 64.2753V70.1289H174.139V61.2324H175.972L179.546 67.0982V61.2324H181.373V70.1289Z" fill="#0033AA"/>
<path d="M150.1 75H109V79.5H150.1V75Z" fill="#C4E4FF"/>
<path d="M131.3 82.5996H109V87.0996H131.3V82.5996Z" fill="#C4E4FF"/>
<path d="M118.81 112.115H112.712V110.905L115.59 107.838C115.985 107.406 116.277 107.029 116.464 106.708C116.656 106.386 116.751 106.08 116.751 105.791C116.751 105.396 116.651 105.086 116.452 104.862C116.252 104.634 115.967 104.52 115.596 104.52C115.197 104.52 114.881 104.659 114.649 104.936C114.421 105.209 114.307 105.569 114.307 106.017H112.535C112.535 105.475 112.663 104.98 112.92 104.532C113.181 104.084 113.547 103.734 114.02 103.481C114.492 103.225 115.028 103.096 115.627 103.096C116.543 103.096 117.254 103.316 117.759 103.756C118.269 104.196 118.523 104.818 118.523 105.62C118.523 106.06 118.409 106.508 118.181 106.964C117.953 107.421 117.562 107.952 117.008 108.559L114.985 110.692H118.81V112.115ZM121.694 106.885H122.635C123.083 106.885 123.415 106.773 123.631 106.549C123.847 106.325 123.955 106.027 123.955 105.657C123.955 105.298 123.847 105.019 123.631 104.82C123.42 104.62 123.126 104.52 122.752 104.52C122.413 104.52 122.13 104.614 121.902 104.801C121.674 104.985 121.56 105.225 121.56 105.522H119.794C119.794 105.058 119.918 104.642 120.167 104.276C120.419 103.905 120.77 103.616 121.218 103.408C121.67 103.2 122.167 103.096 122.709 103.096C123.65 103.096 124.387 103.323 124.921 103.775C125.454 104.223 125.721 104.842 125.721 105.632C125.721 106.04 125.597 106.414 125.348 106.757C125.1 107.099 124.774 107.361 124.371 107.545C124.872 107.724 125.244 107.993 125.489 108.351C125.737 108.71 125.862 109.133 125.862 109.622C125.862 110.413 125.572 111.046 124.994 111.523C124.42 111.999 123.658 112.237 122.709 112.237C121.821 112.237 121.094 112.003 120.527 111.535C119.965 111.066 119.684 110.447 119.684 109.677H121.45C121.45 110.011 121.574 110.284 121.823 110.496C122.075 110.708 122.385 110.814 122.752 110.814C123.171 110.814 123.499 110.704 123.735 110.484C123.976 110.26 124.096 109.964 124.096 109.598C124.096 108.71 123.607 108.266 122.629 108.266H121.694V106.885ZM133.072 108.437C133.072 109.667 132.817 110.608 132.308 111.26C131.799 111.912 131.053 112.237 130.072 112.237C129.102 112.237 128.361 111.918 127.847 111.278C127.334 110.639 127.071 109.722 127.059 108.529V106.891C127.059 105.649 127.316 104.706 127.829 104.062C128.346 103.418 129.09 103.096 130.059 103.096C131.029 103.096 131.77 103.416 132.283 104.056C132.797 104.691 133.06 105.606 133.072 106.799V108.437ZM131.306 106.64C131.306 105.903 131.204 105.367 131 105.033C130.801 104.695 130.487 104.526 130.059 104.526C129.644 104.526 129.336 104.687 129.137 105.009C128.941 105.327 128.837 105.826 128.825 106.506V108.669C128.825 109.394 128.923 109.934 129.118 110.288C129.318 110.639 129.636 110.814 130.072 110.814C130.503 110.814 130.815 110.645 131.006 110.307C131.198 109.968 131.298 109.451 131.306 108.755V106.64ZM134.434 111.248C134.434 110.967 134.528 110.738 134.715 110.563C134.907 110.388 135.145 110.3 135.43 110.3C135.719 110.3 135.958 110.388 136.145 110.563C136.337 110.738 136.432 110.967 136.432 111.248C136.432 111.525 136.339 111.751 136.151 111.926C135.964 112.097 135.724 112.182 135.43 112.182C135.141 112.182 134.903 112.097 134.715 111.926C134.528 111.751 134.434 111.525 134.434 111.248ZM143.899 108.437C143.899 109.667 143.644 110.608 143.135 111.26C142.626 111.912 141.881 112.237 140.899 112.237C139.929 112.237 139.188 111.918 138.675 111.278C138.162 110.639 137.899 109.722 137.887 108.529V106.891C137.887 105.649 138.143 104.706 138.656 104.062C139.174 103.418 139.917 103.096 140.887 103.096C141.856 103.096 142.598 103.416 143.111 104.056C143.624 104.691 143.887 105.606 143.899 106.799V108.437ZM142.133 106.64C142.133 105.903 142.031 105.367 141.828 105.033C141.628 104.695 141.314 104.526 140.887 104.526C140.471 104.526 140.164 104.687 139.964 105.009C139.769 105.327 139.665 105.826 139.652 106.506V108.669C139.652 109.394 139.75 109.934 139.946 110.288C140.145 110.639 140.463 110.814 140.899 110.814C141.331 110.814 141.642 110.645 141.834 110.307C142.025 109.968 142.125 109.451 142.133 108.755V106.64ZM151.085 108.437C151.085 109.667 150.83 110.608 150.321 111.26C149.812 111.912 149.066 112.237 148.085 112.237C147.115 112.237 146.374 111.918 145.86 111.278C145.347 110.639 145.084 109.722 145.072 108.529V106.891C145.072 105.649 145.329 104.706 145.842 104.062C146.359 103.418 147.103 103.096 148.072 103.096C149.042 103.096 149.783 103.416 150.297 104.056C150.81 104.691 151.073 105.606 151.085 106.799V108.437ZM149.319 106.64C149.319 105.903 149.217 105.367 149.013 105.033C148.814 104.695 148.5 104.526 148.072 104.526C147.657 104.526 147.349 104.687 147.15 105.009C146.954 105.327 146.85 105.826 146.838 106.506V108.669C146.838 109.394 146.936 109.934 147.131 110.288C147.331 110.639 147.649 110.814 148.085 110.814C148.516 110.814 148.828 110.645 149.019 110.307C149.211 109.968 149.311 109.451 149.319 108.755V106.64ZM157.983 103.219L160.268 109.671L162.541 103.219H164.949V112.115H163.11V109.683L163.293 105.486L160.892 112.115H159.633L157.238 105.492L157.421 109.683V112.115H155.588V103.219H157.983ZM168.493 110.643H172.978V112.115H166.202V111.04L170.601 104.703H166.208V103.219H172.88V104.27L168.493 110.643ZM181.373 112.115H179.54L175.972 106.262V112.115H174.139V103.219H175.972L179.546 109.085V103.219H181.373V112.115Z" fill="#0033AA"/>
<path d="M150.1 117H109V121.5H150.1V117Z" fill="#C4E4FF"/>
<path d="M131.3 124.601H109V129.101H131.3V124.601Z" fill="#C4E4FF"/>
<path d="M117.002 154.1H115.236V147.293L113.128 147.947V146.511L116.812 145.191H117.002V154.1ZM125.886 150.421C125.886 151.651 125.631 152.592 125.122 153.244C124.613 153.896 123.868 154.222 122.886 154.222C121.916 154.222 121.175 153.902 120.662 153.263C120.149 152.623 119.886 151.706 119.874 150.513V148.875C119.874 147.633 120.13 146.69 120.643 146.046C121.161 145.403 121.904 145.081 122.874 145.081C123.843 145.081 124.585 145.401 125.098 146.04C125.611 146.676 125.874 147.59 125.886 148.784V150.421ZM124.12 148.625C124.12 147.888 124.018 147.352 123.815 147.018C123.615 146.68 123.301 146.511 122.874 146.511C122.458 146.511 122.151 146.672 121.951 146.993C121.756 147.311 121.652 147.81 121.639 148.49V150.653C121.639 151.379 121.737 151.918 121.933 152.273C122.132 152.623 122.45 152.798 122.886 152.798C123.318 152.798 123.629 152.629 123.821 152.291C124.012 151.953 124.112 151.436 124.12 150.739V148.625ZM133.072 150.421C133.072 151.651 132.817 152.592 132.308 153.244C131.799 153.896 131.053 154.222 130.072 154.222C129.102 154.222 128.361 153.902 127.847 153.263C127.334 152.623 127.071 151.706 127.059 150.513V148.875C127.059 147.633 127.316 146.69 127.829 146.046C128.346 145.403 129.09 145.081 130.059 145.081C131.029 145.081 131.77 145.401 132.283 146.04C132.797 146.676 133.06 147.59 133.072 148.784V150.421ZM131.306 148.625C131.306 147.888 131.204 147.352 131 147.018C130.801 146.68 130.487 146.511 130.059 146.511C129.644 146.511 129.336 146.672 129.137 146.993C128.941 147.311 128.837 147.81 128.825 148.49V150.653C128.825 151.379 128.923 151.918 129.118 152.273C129.318 152.623 129.636 152.798 130.072 152.798C130.503 152.798 130.815 152.629 131.006 152.291C131.198 151.953 131.298 151.436 131.306 150.739V148.625ZM134.434 153.232C134.434 152.951 134.528 152.723 134.715 152.548C134.907 152.372 135.145 152.285 135.43 152.285C135.719 152.285 135.958 152.372 136.145 152.548C136.337 152.723 136.432 152.951 136.432 153.232C136.432 153.509 136.339 153.735 136.151 153.91C135.964 154.081 135.724 154.167 135.43 154.167C135.141 154.167 134.903 154.081 134.715 153.91C134.528 153.735 134.434 153.509 134.434 153.232ZM143.899 150.421C143.899 151.651 143.644 152.592 143.135 153.244C142.626 153.896 141.881 154.222 140.899 154.222C139.929 154.222 139.188 153.902 138.675 153.263C138.162 152.623 137.899 151.706 137.887 150.513V148.875C137.887 147.633 138.143 146.69 138.656 146.046C139.174 145.403 139.917 145.081 140.887 145.081C141.856 145.081 142.598 145.401 143.111 146.04C143.624 146.676 143.887 147.59 143.899 148.784V150.421ZM142.133 148.625C142.133 147.888 142.031 147.352 141.828 147.018C141.628 146.68 141.314 146.511 140.887 146.511C140.471 146.511 140.164 146.672 139.964 146.993C139.769 147.311 139.665 147.81 139.652 148.49V150.653C139.652 151.379 139.75 151.918 139.946 152.273C140.145 152.623 140.463 152.798 140.899 152.798C141.331 152.798 141.642 152.629 141.834 152.291C142.025 151.953 142.125 151.436 142.133 150.739V148.625ZM151.085 150.421C151.085 151.651 150.83 152.592 150.321 153.244C149.812 153.896 149.066 154.222 148.085 154.222C147.115 154.222 146.374 153.902 145.86 153.263C145.347 152.623 145.084 151.706 145.072 150.513V148.875C145.072 147.633 145.329 146.69 145.842 146.046C146.359 145.403 147.103 145.081 148.072 145.081C149.042 145.081 149.783 145.401 150.297 146.04C150.81 146.676 151.073 147.59 151.085 148.784V150.421ZM149.319 148.625C149.319 147.888 149.217 147.352 149.013 147.018C148.814 146.68 148.5 146.511 148.072 146.511C147.657 146.511 147.349 146.672 147.15 146.993C146.954 147.311 146.85 147.81 146.838 148.49V150.653C146.838 151.379 146.936 151.918 147.131 152.273C147.331 152.623 147.649 152.798 148.085 152.798C148.516 152.798 148.828 152.629 149.019 152.291C149.211 151.953 149.311 151.436 149.319 150.739V148.625ZM157.983 145.203L160.268 151.656L162.541 145.203H164.949V154.1H163.11V151.668L163.293 147.47L160.892 154.1H159.633L157.238 147.476L157.421 151.668V154.1H155.588V145.203H157.983ZM168.493 152.627H172.978V154.1H166.202V153.024L170.601 146.688H166.208V145.203H172.88V146.254L168.493 152.627ZM181.373 154.1H179.54L175.972 148.246V154.1H174.139V145.203H175.972L179.546 151.069V145.203H181.373V154.1Z" fill="#0033AA"/>
<path d="M150.1 159H109V163.5H150.1V159Z" fill="#C4E4FF"/>
<path d="M131.3 166.6H109V171.1H131.3V166.6Z" fill="#C4E4FF"/>
<path d="M183.5 234.8H152.199C151.899 234.8 151.6 234.6 151.6 234.2V225.1C151.6 224.8 151.799 224.5 152.199 224.5H183.5C183.8 224.5 184.1 224.7 184.1 225.1V234.2C184 234.5 183.8 234.8 183.5 234.8Z" fill="#FFB028" stroke="#0033AA" stroke-miterlimit="10" stroke-linejoin="round"/>
<path d="M179 225.7H149C148.7 225.7 148.399 225.5 148.399 225.1V217.2C148.399 216.9 148.6 216.6 149 216.6H179C179.3 216.6 179.6 216.8 179.6 217.2V225.1C179.6 225.5 179.4 225.7 179 225.7Z" fill="#FFB028" stroke="#0033AA" stroke-miterlimit="10" stroke-linejoin="round"/>
<path d="M180.9 216.7H153.4C153.1 216.7 152.8 216.5 152.8 216.1V208.2C152.8 207.9 153 207.6 153.4 207.6H180.9C181.2 207.6 181.5 207.8 181.5 208.2V216.1C181.5 216.4 181.2 216.7 180.9 216.7Z" fill="#FFB028" stroke="#0033AA" stroke-miterlimit="10" stroke-linejoin="round"/>
<path d="M181.699 207.6H154.199C153.899 207.6 153.6 207.4 153.6 207V199.1C153.6 198.8 153.799 198.5 154.199 198.5H181.699C181.999 198.5 182.3 198.7 182.3 199.1V207C182.2 207.4 181.999 207.6 181.699 207.6Z" fill="#FFB028" stroke="#0033AA" stroke-miterlimit="10" stroke-linejoin="round"/>
<path d="M175.9 198.6H148.4C148.1 198.6 147.8 198.4 147.8 198V190.1C147.8 189.8 148 189.5 148.4 189.5H175.9C176.2 189.5 176.5 189.7 176.5 190.1V198C176.4 198.3 176.2 198.6 175.9 198.6Z" fill="#FFB028" stroke="#0033AA" stroke-miterlimit="10" stroke-linejoin="round"/>
<path d="M176.6 189.5H149.1C148.8 189.5 148.5 189.3 148.5 188.9V181C148.5 180.7 148.7 180.4 149.1 180.4H176.6C176.9 180.4 177.2 180.6 177.2 181V188.9C177.2 189.3 176.9 189.5 176.6 189.5Z" fill="#FFB028" stroke="#0033AA" stroke-miterlimit="10" stroke-linejoin="round"/>
<path d="M169.699 180.5H142.199C141.899 180.5 141.6 180.3 141.6 179.9V172C141.6 171.7 141.799 171.4 142.199 171.4H169.699C169.999 171.4 170.3 171.6 170.3 172V179.9C170.3 180.2 169.999 180.5 169.699 180.5Z" fill="#FFB028" stroke="#0033AA" stroke-miterlimit="10" stroke-linejoin="round"/>
<path d="M212.699 234.8H185.199C184.899 234.8 184.6 234.6 184.6 234.2V226.3C184.6 226 184.799 225.7 185.199 225.7H212.699C212.999 225.7 213.3 225.9 213.3 226.3V234.2C213.3 234.5 212.999 234.8 212.699 234.8Z" fill="#FFB028" stroke="#0033AA" stroke-miterlimit="10" stroke-linejoin="round"/>
<path d="M212.699 225.7H185.199C184.899 225.7 184.6 225.5 184.6 225.1V217.2C184.6 216.9 184.799 216.6 185.199 216.6H212.699C212.999 216.6 213.3 216.8 213.3 217.2V225.1C213.3 225.5 212.999 225.7 212.699 225.7Z" fill="#FFB028" stroke="#0033AA" stroke-miterlimit="10" stroke-linejoin="round"/>
<path d="M210.5 216.7H183C182.7 216.7 182.399 216.5 182.399 216.1V208.2C182.399 207.9 182.6 207.6 183 207.6H210.5C210.8 207.6 211.1 207.8 211.1 208.2V216.1C211.1 216.4 210.8 216.7 210.5 216.7Z" fill="#FFB028" stroke="#0033AA" stroke-miterlimit="10" stroke-linejoin="round"/>
<path d="M212.699 207.6H185.199C184.899 207.6 184.6 207.4 184.6 207V199.1C184.6 198.8 184.799 198.5 185.199 198.5H212.699C212.999 198.5 213.3 198.7 213.3 199.1V207C213.3 207.4 212.999 207.6 212.699 207.6Z" fill="#FFB028" stroke="#0033AA" stroke-miterlimit="10" stroke-linejoin="round"/>
<path d="M209.4 198.6H181.9C181.6 198.6 181.3 198.4 181.3 198V190.1C181.3 189.8 181.5 189.5 181.9 189.5H209.4C209.7 189.5 210 189.7 210 190.1V198C210 198.3 209.7 198.6 209.4 198.6Z" fill="#FFB028" stroke="#0033AA" stroke-miterlimit="10" stroke-linejoin="round"/>
<path d="M196.4 189.6L171.9 177.1C171.6 177 171.5 176.6 171.7 176.4L175.3 169.3C175.4 169 175.8 168.9 176 169.1L200.5 181.6C200.8 181.7 200.9 182.1 200.7 182.3L197.1 189.4C197 189.6 196.6 189.7 196.4 189.6Z" fill="#FFB028" stroke="#0033AA" stroke-miterlimit="10" stroke-linejoin="round"/>
<path d="M204.2 206.6C199.2 216.4 203.1 228.3 212.9 233.2C222.7 238.2 234.6 234.299 239.5 224.499C244.5 214.699 240.6 202.799 230.8 197.899C221 192.999 209.1 196.9 204.2 206.6Z" fill="#FFB028" stroke="#0033AA" stroke-miterlimit="10" stroke-linejoin="round"/>
<path d="M210.1 209.7C206.8 216.2 209.399 224.101 215.899 227.301C222.399 230.501 230.299 228 233.499 221.5C236.799 215 234.199 207.1 227.699 203.9C221.299 200.6 213.4 203.2 210.1 209.7Z" fill="#FFCD77"/>
</svg>
