<svg width="159" height="209" viewBox="0 0 159 209" fill="none" xmlns="http://www.w3.org/2000/svg">
<rect x="49" y="19.7451" width="108.69" height="158.679" fill="white" stroke="#0033AA" stroke-width="2"/>
<path d="M49 9.35673C49 4.74143 52.7414 1 57.3567 1H149.333C153.948 1 157.69 4.74144 157.69 9.35673V20.4238H49V9.35673Z" fill="#66A1ED" stroke="#0033AA" stroke-width="2"/>
<path d="M49 177.747H157.69V188.814C157.69 193.43 153.948 197.171 149.333 197.171H57.3567C52.7414 197.171 49 193.43 49 188.814V177.747Z" fill="#66A1ED" stroke="#0033AA" stroke-width="2"/>
<mask id="path-4-inside-1_3591_7354" fill="white">
<rect x="89.0625" y="8.92773" width="28.5651" height="3.57064" rx="1.55946"/>
</mask>
<rect x="89.0625" y="8.92773" width="28.5651" height="3.57064" rx="1.55946" fill="#0033AA" stroke="#0033AA" stroke-width="3.57064" mask="url(#path-4-inside-1_3591_7354)"/>
<rect x="77" y="121" width="51.8072" height="20.8967" rx="2.11891" fill="#E5EFFC" stroke="#0033AA" stroke-width="2"/>
<path d="M94.173 134.112C92.821 134.112 92.013 133.504 91.509 132.696L92.693 131.96C93.045 132.528 93.629 132.856 94.245 132.856C94.733 132.856 95.101 132.712 95.101 132.344C95.101 131.968 94.629 131.824 94.045 131.68C93.077 131.432 91.789 131.184 91.789 129.84C91.789 128.632 92.701 127.968 94.045 127.968C95.301 127.968 96.053 128.552 96.525 129.128L95.453 130.008C95.125 129.608 94.549 129.264 94.037 129.264C93.581 129.264 93.349 129.416 93.349 129.696C93.349 130.088 93.813 130.232 94.397 130.376C95.365 130.608 96.661 130.904 96.661 132.232C96.661 133.176 95.997 134.112 94.173 134.112ZM99.9347 134.112C98.3747 134.112 97.1587 133.208 97.1587 131.04C97.1587 128.872 98.4307 127.968 99.9347 127.968C101.551 127.968 102.191 128.8 102.439 129.856L100.927 130.304C100.767 129.736 100.543 129.288 99.9267 129.288C99.1347 129.288 98.7587 129.936 98.7587 131.04C98.7587 132.128 99.1507 132.832 99.9427 132.832C100.567 132.832 100.823 132.44 101.007 131.704L102.519 132.04C102.231 133.24 101.551 134.112 99.9347 134.112ZM105.399 130.12L104.831 131.76H105.959L105.415 130.12H105.399ZM104.071 134H102.615L104.711 128.056H106.199L108.295 134H106.679L106.319 132.896H104.455L104.071 134ZM110.395 134H108.931V128.08H110.507L112.675 131.4H112.691V128.08H114.155V134H112.675L110.411 130.688H110.395V134Z" fill="#0033AA"/>
<path d="M1 110.248C1 109.623 1.50611 109.117 2.13042 109.117H58.7175C62.8716 109.117 66.2391 112.485 66.2391 116.639V195.651C66.2391 199.806 62.8716 203.173 58.7175 203.173H2.13042C1.50611 203.173 1 202.667 1 202.043V110.248Z" fill="white" stroke="#0033AA" stroke-width="2"/>
<rect x="11.626" y="123.791" width="42.6083" height="4.26083" rx="2.13042" fill="#99C0F3"/>
<rect x="18.0176" y="132.312" width="29.8258" height="4.26083" rx="2.13042" fill="#99C0F3"/>
<circle cx="33.6186" cy="159.881" r="11.2065" stroke="#0033AA" stroke-width="2" stroke-linecap="round"/>
<ellipse cx="33.6186" cy="159.881" rx="11.2065" ry="3.73551" stroke="#0033AA" stroke-width="2" stroke-linecap="round"/>
<ellipse cx="33.6183" cy="159.881" rx="3.73551" ry="11.2065" stroke="#0033AA" stroke-width="2" stroke-linecap="round"/>
<rect x="58.9004" y="163.149" width="68.9746" height="44.6938" rx="7.38851" fill="white" stroke="#0033AA" stroke-width="2"/>
<mask id="path-14-inside-2_3591_7354" fill="white">
<rect x="67.0176" y="170.128" width="17.7091" height="10.2526" rx="1.86411"/>
</mask>
<rect x="67.0176" y="170.128" width="17.7091" height="10.2526" rx="1.86411" fill="#CCE0F9" stroke="#0033AA" stroke-width="4" mask="url(#path-14-inside-2_3591_7354)"/>
<mask id="path-15-inside-3_3591_7354" fill="white">
<rect x="97.7754" y="170.128" width="22.3694" height="22.3694" rx="1.86411"/>
</mask>
<rect x="97.7754" y="170.128" width="22.3694" height="22.3694" rx="1.86411" fill="white" stroke="#0033AA" stroke-width="4" mask="url(#path-15-inside-3_3591_7354)"/>
<rect x="67.0176" y="187.838" width="24.2335" height="3.72823" rx="1.86411" fill="#99C0F3"/>
<rect x="67.0176" y="195.294" width="14.9129" height="3.72823" rx="1.86411" fill="#99C0F3"/>
<path d="M108.857 183.13H109.878C111.504 183.13 113.063 183.759 114.213 184.88C115.363 186.001 116.008 187.521 116.008 189.107V189.405C116.008 189.854 115.825 190.285 115.5 190.603C115.174 190.92 114.732 191.099 114.272 191.099H104.463C104.003 191.099 103.561 190.92 103.235 190.603C102.91 190.285 102.727 189.854 102.727 189.405V189.107C102.727 187.521 103.372 186.001 104.522 184.88C105.672 183.759 107.231 183.13 108.857 183.13V183.13Z" stroke="#0033AA" stroke-width="2" stroke-linecap="round" stroke-linejoin="round"/>
<path d="M109.369 183.13C111.344 183.13 112.945 181.569 112.945 179.644C112.945 177.718 111.344 176.157 109.369 176.157C107.394 176.157 105.793 177.718 105.793 179.644C105.793 181.569 107.394 183.13 109.369 183.13Z" fill="white" stroke="#0033AA" stroke-width="2" stroke-linecap="round" stroke-linejoin="round"/>
<path d="M126.268 50.4133L126.268 42.616C126.268 40.8935 124.871 39.4971 123.149 39.4971L115.351 39.4971" stroke="#0033AA" stroke-width="2" stroke-linecap="round"/>
<path d="M90.3996 39.4971H82.6023C80.8798 39.4971 79.4834 40.8935 79.4834 42.616V50.4133" stroke="#0033AA" stroke-width="2" stroke-linecap="round"/>
<path d="M116.131 86.2812L123.928 86.2812C125.65 86.2812 127.047 84.8849 127.047 83.1623L127.047 75.3651" stroke="#0033AA" stroke-width="2" stroke-linecap="round"/>
<path d="M80.2637 75.3651L80.2637 83.1623C80.2637 84.8849 81.6601 86.2812 83.3826 86.2812L91.1799 86.2813" stroke="#0033AA" stroke-width="2" stroke-linecap="round"/>
<path d="M103.906 75.5625C110.81 75.5625 116.406 69.9661 116.406 63.0625C116.406 56.1589 110.81 50.5625 103.906 50.5625C97.0027 50.5625 91.4062 56.1589 91.4062 63.0625C91.4062 69.9661 97.0027 75.5625 103.906 75.5625Z" fill="#EA424C" stroke="#EA424C" stroke-width="2" stroke-linecap="round" stroke-linejoin="round"/>
<path d="M105.221 63.0633V57.8002C105.221 57.0735 104.632 56.4844 103.906 56.4844C103.179 56.4844 102.59 57.0735 102.59 57.8002V63.0633C102.59 63.79 103.179 64.3791 103.906 64.3791C104.632 64.3791 105.221 63.79 105.221 63.0633Z" fill="white"/>
<path d="M103.906 69.6413C104.632 69.6413 105.221 69.0522 105.221 68.3256C105.221 67.5989 104.632 67.0098 103.906 67.0098C103.179 67.0098 102.59 67.5989 102.59 68.3256C102.59 69.0522 103.179 69.6413 103.906 69.6413Z" fill="white"/>
</svg>
