<svg width="70" height="70" viewBox="0 0 70 70" fill="none" xmlns="http://www.w3.org/2000/svg">
<circle opacity="0.16" cx="35" cy="35" r="35" fill="#B150C5"/>
<path d="M36.375 22.375C36.375 23.4105 35.5355 24.25 34.5 24.25C33.4645 24.25 32.625 23.4105 32.625 22.375C32.625 21.3395 33.4645 20.5 34.5 20.5C35.5355 20.5 36.375 21.3395 36.375 22.375Z" fill="url(#paint0_linear_702_2287)"/>
<path fill-rule="evenodd" clip-rule="evenodd" d="M34.0247 16.8794C34.3181 16.7069 34.6819 16.7069 34.9753 16.8794L50.9128 26.2544C51.2773 26.4689 51.4532 26.9008 51.3421 27.3088C51.2309 27.7169 50.8604 28 50.4375 28H49.5V30.8125C49.5 31.3303 49.0803 31.75 48.5625 31.75H47.625V44.875H48.5625C49.0803 44.875 49.5 45.2947 49.5 45.8125V48.625H50.4375C50.9553 48.625 51.375 49.0447 51.375 49.5625V52.375H52.3125C52.8303 52.375 53.25 52.7947 53.25 53.3125C53.25 53.8303 52.8303 54.25 52.3125 54.25H16.6875C16.1697 54.25 15.75 53.8303 15.75 53.3125C15.75 52.7947 16.1697 52.375 16.6875 52.375H17.625V49.5625C17.625 49.0447 18.0447 48.625 18.5625 48.625H19.5V45.8125C19.5 45.2947 19.9197 44.875 20.4375 44.875H21.375V31.75H20.4375C19.9197 31.75 19.5 31.3303 19.5 30.8125V28H18.5625C18.1396 28 17.7691 27.7169 17.6579 27.3088C17.5468 26.9008 17.7227 26.4689 18.0872 26.2544L34.0247 16.8794ZM34.5 18.7752L46.9947 26.125H22.0053L34.5 18.7752ZM21.375 29.875V28H47.625V29.875H21.375ZM37.3125 31.75H42V44.875H37.3125V31.75ZM33.5625 44.875V31.75H35.4375V44.875H33.5625ZM27 31.75H31.6875V44.875H27V31.75ZM23.25 31.75H25.125V44.875H23.25V31.75ZM43.875 31.75H45.75V44.875H43.875V31.75ZM19.5 50.5V52.375H49.5V50.5H19.5ZM47.625 48.625V46.75H21.375V48.625H47.625Z" fill="url(#paint1_linear_702_2287)"/>
<defs>
<linearGradient id="paint0_linear_702_2287" x1="34.5" y1="16.75" x2="34.5" y2="54.25" gradientUnits="userSpaceOnUse">
<stop stop-color="#B150C5"/>
<stop offset="1" stop-color="#665EC7"/>
</linearGradient>
<linearGradient id="paint1_linear_702_2287" x1="34.5" y1="16.75" x2="34.5" y2="54.25" gradientUnits="userSpaceOnUse">
<stop stop-color="#B150C5"/>
<stop offset="1" stop-color="#665EC7"/>
</linearGradient>
</defs>
</svg>
